<svg xmlns="http://www.w3.org/2000/svg" viewBox="-98.09 -24.00 801.34 354.30" width="801" height="354">
<polygon points="0.00,0.00 11.28,4.10 0.00,8.21 -11.28,4.10" fill="#161b22"/>
<polygon points="-13.16,4.79 -1.88,8.89 -13.16,13.00 -24.43,8.89" fill="#161b22"/>
<polygon points="13.16,4.79 24.43,8.89 13.16,13.00 1.88,8.89" fill="#161b22"/>
<polygon points="-26.31,9.58 -15.04,13.68 -26.31,17.79 -37.59,13.68" fill="#161b22"/>
<polygon points="0.00,9.58 11.28,13.68 0.00,17.79 -11.28,13.68" fill="#161b22"/>
<polygon points="26.31,9.58 37.59,13.68 26.31,17.79 15.04,13.68" fill="#161b22"/>
<polygon points="-39.47,14.36 -28.19,18.47 -39.47,22.57 -50.74,18.47" fill="#161b22"/>
<polygon points="-13.16,14.36 -1.88,18.47 -13.16,22.57 -24.43,18.47" fill="#161b22"/>
<polygon points="13.16,14.36 24.43,18.47 13.16,22.57 1.88,18.47" fill="#161b22"/>
<polygon points="39.47,14.36 50.74,18.47 39.47,22.57 28.19,18.47" fill="#161b22"/>
<polygon points="-26.31,19.15 -15.04,23.26 -26.31,27.36 -37.59,23.26" fill="#161b22"/>
<polygon points="0.00,19.15 11.28,23.26 0.00,27.36 -11.28,23.26" fill="#161b22"/>
<polygon points="26.31,19.15 37.59,23.26 26.31,27.36 15.04,23.26" fill="#161b22"/>
<polygon points="52.62,19.15 63.90,23.26 52.62,27.36 41.35,23.26" fill="#161b22"/>
<polygon points="-52.62,6.15 -41.35,10.26 -52.62,14.36 -63.90,10.26" fill="#0e4429"/>
<polygon points="-63.90,23.26 -63.90,10.26 -52.62,14.36 -52.62,27.36" fill="#0c3b24"/>
<polygon points="-52.62,27.36 -52.62,14.36 -41.35,10.26 -41.35,23.26" fill="#0a321e"/>
<polygon points="-65.78,23.94 -54.50,28.05 -65.78,32.15 -77.05,28.05" fill="#161b22"/>
<polygon points="-39.47,23.94 -28.19,28.05 -39.47,32.15 -50.74,28.05" fill="#161b22"/>
<polygon points="-13.16,23.94 -1.88,28.05 -13.16,32.15 -24.43,28.05" fill="#161b22"/>
<polygon points="13.16,23.94 24.43,28.05 13.16,32.15 1.88,28.05" fill="#161b22"/>
<polygon points="39.47,23.94 50.74,28.05 39.47,32.15 28.19,28.05" fill="#161b22"/>
<polygon points="65.78,23.94 77.05,28.05 65.78,32.15 54.50,28.05" fill="#161b22"/>
<polygon points="-78.93,28.73 -67.66,32.83 -78.93,36.94 -90.21,32.83" fill="#161b22"/>
<polygon points="-52.62,28.73 -41.35,32.83 -52.62,36.94 -63.90,32.83" fill="#161b22"/>
<polygon points="-26.31,28.73 -15.04,32.83 -26.31,36.94 -37.59,32.83" fill="#161b22"/>
<polygon points="0.00,28.73 11.28,32.83 0.00,36.94 -11.28,32.83" fill="#161b22"/>
<polygon points="26.31,28.73 37.59,32.83 26.31,36.94 15.04,32.83" fill="#161b22"/>
<polygon points="52.62,28.73 63.90,32.83 52.62,36.94 41.35,32.83" fill="#161b22"/>
<polygon points="78.93,28.73 90.21,32.83 78.93,36.94 67.66,32.83" fill="#161b22"/>
<polygon points="-65.78,33.52 -54.50,37.62 -65.78,41.73 -77.05,37.62" fill="#161b22"/>
<polygon points="-13.16,33.52 -1.88,37.62 -13.16,41.73 -24.43,37.62" fill="#161b22"/>
<polygon points="13.16,33.52 24.43,37.62 13.16,41.73 1.88,37.62" fill="#161b22"/>
<polygon points="65.78,33.52 77.05,37.62 65.78,41.73 54.50,37.62" fill="#161b22"/>
<polygon points="92.09,33.52 103.37,37.62 92.09,41.73 80.81,37.62" fill="#161b22"/>
<polygon points="-39.47,25.52 -28.19,29.62 -39.47,33.73 -50.74,29.62" fill="#0e4429"/>
<polygon points="-50.74,37.62 -50.74,29.62 -39.47,33.73 -39.47,41.73" fill="#0c3b24"/>
<polygon points="-39.47,41.73 -39.47,33.73 -28.19,29.62 -28.19,37.62" fill="#0a321e"/>
<polygon points="39.47,25.52 50.74,29.62 39.47,33.73 28.19,29.62" fill="#0e4429"/>
<polygon points="28.19,37.62 28.19,29.62 39.47,33.73 39.47,41.73" fill="#0c3b24"/>
<polygon points="39.47,41.73 39.47,33.73 50.74,29.62 50.74,37.62" fill="#0a321e"/>
<polygon points="-52.62,38.31 -41.35,42.41 -52.62,46.51 -63.90,42.41" fill="#161b22"/>
<polygon points="-26.31,38.31 -15.04,42.41 -26.31,46.51 -37.59,42.41" fill="#161b22"/>
<polygon points="0.00,38.31 11.28,42.41 0.00,46.51 -11.28,42.41" fill="#161b22"/>
<polygon points="26.31,38.31 37.59,42.41 26.31,46.51 15.04,42.41" fill="#161b22"/>
<polygon points="52.62,38.31 63.90,42.41 52.62,46.51 41.35,42.41" fill="#161b22"/>
<polygon points="78.93,38.31 90.21,42.41 78.93,46.51 67.66,42.41" fill="#161b22"/>
<polygon points="105.25,38.31 116.52,42.41 105.25,46.51 93.97,42.41" fill="#161b22"/>
<polygon points="-39.47,43.09 -28.19,47.20 -39.47,51.30 -50.74,47.20" fill="#161b22"/>
<polygon points="-13.16,43.09 -1.88,47.20 -13.16,51.30 -24.43,47.20" fill="#161b22"/>
<polygon points="39.47,43.09 50.74,47.20 39.47,51.30 28.19,47.20" fill="#161b22"/>
<polygon points="65.78,43.09 77.05,47.20 65.78,51.30 54.50,47.20" fill="#161b22"/>
<polygon points="92.09,43.09 103.37,47.20 92.09,51.30 80.81,47.20" fill="#161b22"/>
<polygon points="118.40,43.09 129.68,47.20 118.40,51.30 107.12,47.20" fill="#161b22"/>
<polygon points="13.16,35.09 24.43,39.20 13.16,43.30 1.88,39.20" fill="#0e4429"/>
<polygon points="1.88,47.20 1.88,39.20 13.16,43.30 13.16,51.30" fill="#0c3b24"/>
<polygon points="13.16,51.30 13.16,43.30 24.43,39.20 24.43,47.20" fill="#0a321e"/>
<polygon points="-26.31,47.88 -15.04,51.99 -26.31,56.09 -37.59,51.99" fill="#161b22"/>
<polygon points="0.00,47.88 11.28,51.99 0.00,56.09 -11.28,51.99" fill="#161b22"/>
<polygon points="26.31,47.88 37.59,51.99 26.31,56.09 15.04,51.99" fill="#161b22"/>
<polygon points="52.62,47.88 63.90,51.99 52.62,56.09 41.35,51.99" fill="#161b22"/>
<polygon points="78.93,47.88 90.21,51.99 78.93,56.09 67.66,51.99" fill="#161b22"/>
<polygon points="105.25,47.88 116.52,51.99 105.25,56.09 93.97,51.99" fill="#161b22"/>
<polygon points="131.56,47.88 142.83,51.99 131.56,56.09 120.28,51.99" fill="#161b22"/>
<polygon points="-13.16,52.67 -1.88,56.78 -13.16,60.88 -24.43,56.78" fill="#161b22"/>
<polygon points="13.16,52.67 24.43,56.78 13.16,60.88 1.88,56.78" fill="#161b22"/>
<polygon points="39.47,52.67 50.74,56.78 39.47,60.88 28.19,56.78" fill="#161b22"/>
<polygon points="65.78,52.67 77.05,56.78 65.78,60.88 54.50,56.78" fill="#161b22"/>
<polygon points="118.40,52.67 129.68,56.78 118.40,60.88 107.12,56.78" fill="#161b22"/>
<polygon points="144.71,52.67 155.99,56.78 144.71,60.88 133.44,56.78" fill="#161b22"/>
<polygon points="92.09,41.67 103.37,45.78 92.09,49.88 80.81,45.78" fill="#0e4429"/>
<polygon points="80.81,56.78 80.81,45.78 92.09,49.88 92.09,60.88" fill="#0c3b24"/>
<polygon points="92.09,60.88 92.09,49.88 103.37,45.78 103.37,56.78" fill="#0a321e"/>
<polygon points="0.00,57.46 11.28,61.56 0.00,65.67 -11.28,61.56" fill="#161b22"/>
<polygon points="26.31,57.46 37.59,61.56 26.31,65.67 15.04,61.56" fill="#161b22"/>
<polygon points="52.62,57.46 63.90,61.56 52.62,65.67 41.35,61.56" fill="#161b22"/>
<polygon points="131.56,57.46 142.83,61.56 131.56,65.67 120.28,61.56" fill="#161b22"/>
<polygon points="157.87,57.46 169.14,61.56 157.87,65.67 146.59,61.56" fill="#161b22"/>
<polygon points="78.93,46.46 90.21,50.56 78.93,54.67 67.66,50.56" fill="#0e4429"/>
<polygon points="67.66,61.56 67.66,50.56 78.93,54.67 78.93,65.67" fill="#0c3b24"/>
<polygon points="78.93,65.67 78.93,54.67 90.21,50.56 90.21,61.56" fill="#0a321e"/>
<polygon points="105.25,49.46 116.52,53.56 105.25,57.67 93.97,53.56" fill="#0e4429"/>
<polygon points="93.97,61.56 93.97,53.56 105.25,57.67 105.25,65.67" fill="#0c3b24"/>
<polygon points="105.25,65.67 105.25,57.67 116.52,53.56 116.52,61.56" fill="#0a321e"/>
<polygon points="13.16,62.25 24.43,66.35 13.16,70.46 1.88,66.35" fill="#161b22"/>
<polygon points="39.47,62.25 50.74,66.35 39.47,70.46 28.19,66.35" fill="#161b22"/>
<polygon points="65.78,62.25 77.05,66.35 65.78,70.46 54.50,66.35" fill="#161b22"/>
<polygon points="118.40,62.25 129.68,66.35 118.40,70.46 107.12,66.35" fill="#161b22"/>
<polygon points="144.71,62.25 155.99,66.35 144.71,70.46 133.44,66.35" fill="#161b22"/>
<polygon points="92.09,51.25 103.37,55.35 92.09,59.46 80.81,55.35" fill="#0e4429"/>
<polygon points="80.81,66.35 80.81,55.35 92.09,59.46 92.09,70.46" fill="#0c3b24"/>
<polygon points="92.09,70.46 92.09,59.46 103.37,55.35 103.37,66.35" fill="#0a321e"/>
<polygon points="171.02,49.25 182.30,53.35 171.02,57.46 159.75,53.35" fill="#0e4429"/>
<polygon points="159.75,66.35 159.75,53.35 171.02,57.46 171.02,70.46" fill="#0c3b24"/>
<polygon points="171.02,70.46 171.02,57.46 182.30,53.35 182.30,66.35" fill="#0a321e"/>
<polygon points="26.31,67.04 37.59,71.14 26.31,75.24 15.04,71.14" fill="#161b22"/>
<polygon points="52.62,67.04 63.90,71.14 52.62,75.24 41.35,71.14" fill="#161b22"/>
<polygon points="78.93,67.04 90.21,71.14 78.93,75.24 67.66,71.14" fill="#161b22"/>
<polygon points="131.56,67.04 142.83,71.14 131.56,75.24 120.28,71.14" fill="#161b22"/>
<polygon points="184.18,67.04 195.46,71.14 184.18,75.24 172.90,71.14" fill="#161b22"/>
<polygon points="105.25,59.04 116.52,63.14 105.25,67.24 93.97,63.14" fill="#0e4429"/>
<polygon points="93.97,71.14 93.97,63.14 105.25,67.24 105.25,75.24" fill="#0c3b24"/>
<polygon points="105.25,75.24 105.25,67.24 116.52,63.14 116.52,71.14" fill="#0a321e"/>
<polygon points="157.87,49.04 169.14,53.14 157.87,57.24 146.59,53.14" fill="#006d32"/>
<polygon points="146.59,71.14 146.59,53.14 157.87,57.24 157.87,75.24" fill="#005f2c"/>
<polygon points="157.87,75.24 157.87,57.24 169.14,53.14 169.14,71.14" fill="#005025"/>
<polygon points="39.47,71.82 50.74,75.93 39.47,80.03 28.19,75.93" fill="#161b22"/>
<polygon points="65.78,71.82 77.05,75.93 65.78,80.03 54.50,75.93" fill="#161b22"/>
<polygon points="171.02,71.82 182.30,75.93 171.02,80.03 159.75,75.93" fill="#161b22"/>
<polygon points="197.34,71.82 208.61,75.93 197.34,80.03 186.06,75.93" fill="#161b22"/>
<polygon points="92.09,60.82 103.37,64.93 92.09,69.03 80.81,64.93" fill="#0e4429"/>
<polygon points="80.81,75.93 80.81,64.93 92.09,69.03 92.09,80.03" fill="#0c3b24"/>
<polygon points="92.09,80.03 92.09,69.03 103.37,64.93 103.37,75.93" fill="#0a321e"/>
<polygon points="118.40,58.82 129.68,62.93 118.40,67.03 107.12,62.93" fill="#0e4429"/>
<polygon points="107.12,75.93 107.12,62.93 118.40,67.03 118.40,80.03" fill="#0c3b24"/>
<polygon points="118.40,80.03 118.40,67.03 129.68,62.93 129.68,75.93" fill="#0a321e"/>
<polygon points="144.71,54.82 155.99,58.93 144.71,63.03 133.44,58.93" fill="#0e4429"/>
<polygon points="133.44,75.93 133.44,58.93 144.71,63.03 144.71,80.03" fill="#0c3b24"/>
<polygon points="144.71,80.03 144.71,63.03 155.99,58.93 155.99,75.93" fill="#0a321e"/>
<polygon points="52.62,76.61 63.90,80.72 52.62,84.82 41.35,80.72" fill="#161b22"/>
<polygon points="78.93,76.61 90.21,80.72 78.93,84.82 67.66,80.72" fill="#161b22"/>
<polygon points="105.25,76.61 116.52,80.72 105.25,84.82 93.97,80.72" fill="#161b22"/>
<polygon points="157.87,76.61 169.14,80.72 157.87,84.82 146.59,80.72" fill="#161b22"/>
<polygon points="184.18,76.61 195.46,80.72 184.18,84.82 172.90,80.72" fill="#161b22"/>
<polygon points="210.49,76.61 221.77,80.72 210.49,84.82 199.21,80.72" fill="#161b22"/>
<polygon points="131.56,63.61 142.83,67.72 131.56,71.82 120.28,67.72" fill="#0e4429"/>
<polygon points="120.28,80.72 120.28,67.72 131.56,71.82 131.56,84.82" fill="#0c3b24"/>
<polygon points="131.56,84.82 131.56,71.82 142.83,67.72 142.83,80.72" fill="#0a321e"/>
<polygon points="65.78,81.40 77.05,85.51 65.78,89.61 54.50,85.51" fill="#161b22"/>
<polygon points="92.09,81.40 103.37,85.51 92.09,89.61 80.81,85.51" fill="#161b22"/>
<polygon points="144.71,81.40 155.99,85.51 144.71,89.61 133.44,85.51" fill="#161b22"/>
<polygon points="171.02,81.40 182.30,85.51 171.02,89.61 159.75,85.51" fill="#161b22"/>
<polygon points="197.34,81.40 208.61,85.51 197.34,89.61 186.06,85.51" fill="#161b22"/>
<polygon points="223.65,81.40 234.92,85.51 223.65,89.61 212.37,85.51" fill="#161b22"/>
<polygon points="118.40,67.40 129.68,71.51 118.40,75.61 107.12,71.51" fill="#0e4429"/>
<polygon points="107.12,85.51 107.12,71.51 118.40,75.61 118.40,89.61" fill="#0c3b24"/>
<polygon points="118.40,89.61 118.40,75.61 129.68,71.51 129.68,85.51" fill="#0a321e"/>
<polygon points="105.25,86.19 116.52,90.29 105.25,94.40 93.97,90.29" fill="#161b22"/>
<polygon points="131.56,86.19 142.83,90.29 131.56,94.40 120.28,90.29" fill="#161b22"/>
<polygon points="184.18,86.19 195.46,90.29 184.18,94.40 172.90,90.29" fill="#161b22"/>
<polygon points="210.49,86.19 221.77,90.29 210.49,94.40 199.21,90.29" fill="#161b22"/>
<polygon points="236.80,86.19 248.08,90.29 236.80,94.40 225.53,90.29" fill="#161b22"/>
<polygon points="78.93,72.19 90.21,76.29 78.93,80.40 67.66,76.29" fill="#0e4429"/>
<polygon points="67.66,90.29 67.66,76.29 78.93,80.40 78.93,94.40" fill="#0c3b24"/>
<polygon points="78.93,94.40 78.93,80.40 90.21,76.29 90.21,90.29" fill="#0a321e"/>
<polygon points="157.87,78.19 169.14,82.29 157.87,86.40 146.59,82.29" fill="#0e4429"/>
<polygon points="146.59,90.29 146.59,82.29 157.87,86.40 157.87,94.40" fill="#0c3b24"/>
<polygon points="157.87,94.40 157.87,86.40 169.14,82.29 169.14,90.29" fill="#0a321e"/>
<polygon points="92.09,90.98 103.37,95.08 92.09,99.19 80.81,95.08" fill="#161b22"/>
<polygon points="118.40,90.98 129.68,95.08 118.40,99.19 107.12,95.08" fill="#161b22"/>
<polygon points="144.71,90.98 155.99,95.08 144.71,99.19 133.44,95.08" fill="#161b22"/>
<polygon points="171.02,90.98 182.30,95.08 171.02,99.19 159.75,95.08" fill="#161b22"/>
<polygon points="197.34,90.98 208.61,95.08 197.34,99.19 186.06,95.08" fill="#161b22"/>
<polygon points="223.65,90.98 234.92,95.08 223.65,99.19 212.37,95.08" fill="#161b22"/>
<polygon points="249.96,90.98 261.23,95.08 249.96,99.19 238.68,95.08" fill="#161b22"/>
<polygon points="105.25,95.77 116.52,99.87 105.25,103.97 93.97,99.87" fill="#161b22"/>
<polygon points="131.56,95.77 142.83,99.87 131.56,103.97 120.28,99.87" fill="#161b22"/>
<polygon points="157.87,95.77 169.14,99.87 157.87,103.97 146.59,99.87" fill="#161b22"/>
<polygon points="184.18,95.77 195.46,99.87 184.18,103.97 172.90,99.87" fill="#161b22"/>
<polygon points="210.49,95.77 221.77,99.87 210.49,103.97 199.21,99.87" fill="#161b22"/>
<polygon points="263.11,95.77 274.39,99.87 263.11,103.97 251.84,99.87" fill="#161b22"/>
<polygon points="236.80,87.77 248.08,91.87 236.80,95.97 225.53,91.87" fill="#0e4429"/>
<polygon points="225.53,99.87 225.53,91.87 236.80,95.97 236.80,103.97" fill="#0c3b24"/>
<polygon points="236.80,103.97 236.80,95.97 248.08,91.87 248.08,99.87" fill="#0a321e"/>
<polygon points="118.40,100.55 129.68,104.66 118.40,108.76 107.12,104.66" fill="#161b22"/>
<polygon points="144.71,100.55 155.99,104.66 144.71,108.76 133.44,104.66" fill="#161b22"/>
<polygon points="171.02,100.55 182.30,104.66 171.02,108.76 159.75,104.66" fill="#161b22"/>
<polygon points="276.27,100.55 287.55,104.66 276.27,108.76 264.99,104.66" fill="#161b22"/>
<polygon points="197.34,89.55 208.61,93.66 197.34,97.76 186.06,93.66" fill="#0e4429"/>
<polygon points="186.06,104.66 186.06,93.66 197.34,97.76 197.34,108.76" fill="#0c3b24"/>
<polygon points="197.34,108.76 197.34,97.76 208.61,93.66 208.61,104.66" fill="#0a321e"/>
<polygon points="223.65,92.55 234.92,96.66 223.65,100.76 212.37,96.66" fill="#0e4429"/>
<polygon points="212.37,104.66 212.37,96.66 223.65,100.76 223.65,108.76" fill="#0c3b24"/>
<polygon points="223.65,108.76 223.65,100.76 234.92,96.66 234.92,104.66" fill="#0a321e"/>
<polygon points="249.96,89.55 261.23,93.66 249.96,97.76 238.68,93.66" fill="#0e4429"/>
<polygon points="238.68,104.66 238.68,93.66 249.96,97.76 249.96,108.76" fill="#0c3b24"/>
<polygon points="249.96,108.76 249.96,97.76 261.23,93.66 261.23,104.66" fill="#0a321e"/>
<polygon points="236.80,105.34 248.08,109.45 236.80,113.55 225.53,109.45" fill="#161b22"/>
<polygon points="263.11,105.34 274.39,109.45 263.11,113.55 251.84,109.45" fill="#161b22"/>
<polygon points="289.43,105.34 300.70,109.45 289.43,113.55 278.15,109.45" fill="#161b22"/>
<polygon points="131.56,97.34 142.83,101.45 131.56,105.55 120.28,101.45" fill="#0e4429"/>
<polygon points="120.28,109.45 120.28,101.45 131.56,105.55 131.56,113.55" fill="#0c3b24"/>
<polygon points="131.56,113.55 131.56,105.55 142.83,101.45 142.83,109.45" fill="#0a321e"/>
<polygon points="157.87,97.34 169.14,101.45 157.87,105.55 146.59,101.45" fill="#0e4429"/>
<polygon points="146.59,109.45 146.59,101.45 157.87,105.55 157.87,113.55" fill="#0c3b24"/>
<polygon points="157.87,113.55 157.87,105.55 169.14,101.45 169.14,109.45" fill="#0a321e"/>
<polygon points="184.18,91.34 195.46,95.45 184.18,99.55 172.90,95.45" fill="#0e4429"/>
<polygon points="172.90,109.45 172.90,95.45 184.18,99.55 184.18,113.55" fill="#0c3b24"/>
<polygon points="184.18,113.55 184.18,99.55 195.46,95.45 195.46,109.45" fill="#0a321e"/>
<polygon points="210.49,97.34 221.77,101.45 210.49,105.55 199.21,101.45" fill="#0e4429"/>
<polygon points="199.21,109.45 199.21,101.45 210.49,105.55 210.49,113.55" fill="#0c3b24"/>
<polygon points="210.49,113.55 210.49,105.55 221.77,101.45 221.77,109.45" fill="#0a321e"/>
<polygon points="171.02,110.13 182.30,114.23 171.02,118.34 159.75,114.23" fill="#161b22"/>
<polygon points="197.34,110.13 208.61,114.23 197.34,118.34 186.06,114.23" fill="#161b22"/>
<polygon points="223.65,110.13 234.92,114.23 223.65,118.34 212.37,114.23" fill="#161b22"/>
<polygon points="249.96,110.13 261.23,114.23 249.96,118.34 238.68,114.23" fill="#161b22"/>
<polygon points="302.58,110.13 313.86,114.23 302.58,118.34 291.30,114.23" fill="#161b22"/>
<polygon points="144.71,102.13 155.99,106.23 144.71,110.34 133.44,106.23" fill="#0e4429"/>
<polygon points="133.44,114.23 133.44,106.23 144.71,110.34 144.71,118.34" fill="#0c3b24"/>
<polygon points="144.71,118.34 144.71,110.34 155.99,106.23 155.99,114.23" fill="#0a321e"/>
<polygon points="276.27,94.13 287.55,98.23 276.27,102.34 264.99,98.23" fill="#0e4429"/>
<polygon points="264.99,114.23 264.99,98.23 276.27,102.34 276.27,118.34" fill="#0c3b24"/>
<polygon points="276.27,118.34 276.27,102.34 287.55,98.23 287.55,114.23" fill="#0a321e"/>
<polygon points="157.87,114.92 169.14,119.02 157.87,123.13 146.59,119.02" fill="#161b22"/>
<polygon points="184.18,114.92 195.46,119.02 184.18,123.13 172.90,119.02" fill="#161b22"/>
<polygon points="236.80,114.92 248.08,119.02 236.80,123.13 225.53,119.02" fill="#161b22"/>
<polygon points="263.11,114.92 274.39,119.02 263.11,123.13 251.84,119.02" fill="#161b22"/>
<polygon points="289.43,114.92 300.70,119.02 289.43,123.13 278.15,119.02" fill="#161b22"/>
<polygon points="315.74,114.92 327.01,119.02 315.74,123.13 304.46,119.02" fill="#161b22"/>
<polygon points="210.49,106.92 221.77,111.02 210.49,115.13 199.21,111.02" fill="#0e4429"/>
<polygon points="199.21,119.02 199.21,111.02 210.49,115.13 210.49,123.13" fill="#0c3b24"/>
<polygon points="210.49,123.13 210.49,115.13 221.77,111.02 221.77,119.02" fill="#0a321e"/>
<polygon points="171.02,119.71 182.30,123.81 171.02,127.92 159.75,123.81" fill="#161b22"/>
<polygon points="223.65,119.71 234.92,123.81 223.65,127.92 212.37,123.81" fill="#161b22"/>
<polygon points="249.96,119.71 261.23,123.81 249.96,127.92 238.68,123.81" fill="#161b22"/>
<polygon points="276.27,119.71 287.55,123.81 276.27,127.92 264.99,123.81" fill="#161b22"/>
<polygon points="302.58,119.71 313.86,123.81 302.58,127.92 291.30,123.81" fill="#161b22"/>
<polygon points="328.89,119.71 340.17,123.81 328.89,127.92 317.62,123.81" fill="#161b22"/>
<polygon points="197.34,111.71 208.61,115.81 197.34,119.92 186.06,115.81" fill="#0e4429"/>
<polygon points="186.06,123.81 186.06,115.81 197.34,119.92 197.34,127.92" fill="#0c3b24"/>
<polygon points="197.34,127.92 197.34,119.92 208.61,115.81 208.61,123.81" fill="#0a321e"/>
<polygon points="184.18,124.50 195.46,128.60 184.18,132.70 172.90,128.60" fill="#161b22"/>
<polygon points="236.80,124.50 248.08,128.60 236.80,132.70 225.53,128.60" fill="#161b22"/>
<polygon points="289.43,124.50 300.70,128.60 289.43,132.70 278.15,128.60" fill="#161b22"/>
<polygon points="263.11,110.50 274.39,114.60 263.11,118.70 251.84,114.60" fill="#0e4429"/>
<polygon points="251.84,128.60 251.84,114.60 263.11,118.70 263.11,132.70" fill="#0c3b24"/>
<polygon points="263.11,132.70 263.11,118.70 274.39,114.60 274.39,128.60" fill="#0a321e"/>
<polygon points="210.49,106.50 221.77,110.60 210.49,114.70 199.21,110.60" fill="#006d32"/>
<polygon points="199.21,128.60 199.21,110.60 210.49,114.70 210.49,132.70" fill="#005f2c"/>
<polygon points="210.49,132.70 210.49,114.70 221.77,110.60 221.77,128.60" fill="#005025"/>
<polygon points="342.05,106.50 353.32,110.60 342.05,114.70 330.77,110.60" fill="#006d32"/>
<polygon points="330.77,128.60 330.77,110.60 342.05,114.70 342.05,132.70" fill="#005f2c"/>
<polygon points="342.05,132.70 342.05,114.70 353.32,110.60 353.32,128.60" fill="#005025"/>
<polygon points="315.74,106.50 327.01,110.60 315.74,114.70 304.46,110.60" fill="#26a641"/>
<polygon points="304.46,128.60 304.46,110.60 315.74,114.70 315.74,132.70" fill="#219239"/>
<polygon points="315.74,132.70 315.74,114.70 327.01,110.60 327.01,128.60" fill="#1c7a30"/>
<polygon points="197.34,129.28 208.61,133.39 197.34,137.49 186.06,133.39" fill="#161b22"/>
<polygon points="223.65,129.28 234.92,133.39 223.65,137.49 212.37,133.39" fill="#161b22"/>
<polygon points="249.96,129.28 261.23,133.39 249.96,137.49 238.68,133.39" fill="#161b22"/>
<polygon points="355.20,129.28 366.48,133.39 355.20,137.49 343.93,133.39" fill="#161b22"/>
<polygon points="276.27,116.28 287.55,120.39 276.27,124.49 264.99,120.39" fill="#0e4429"/>
<polygon points="264.99,133.39 264.99,120.39 276.27,124.49 276.27,137.49" fill="#0c3b24"/>
<polygon points="276.27,137.49 276.27,124.49 287.55,120.39 287.55,133.39" fill="#0a321e"/>
<polygon points="302.58,113.28 313.86,117.39 302.58,121.49 291.30,117.39" fill="#0e4429"/>
<polygon points="291.30,133.39 291.30,117.39 302.58,121.49 302.58,137.49" fill="#0c3b24"/>
<polygon points="302.58,137.49 302.58,121.49 313.86,117.39 313.86,133.39" fill="#0a321e"/>
<polygon points="328.89,113.28 340.17,117.39 328.89,121.49 317.62,117.39" fill="#0e4429"/>
<polygon points="317.62,133.39 317.62,117.39 328.89,121.49 328.89,137.49" fill="#0c3b24"/>
<polygon points="328.89,137.49 328.89,121.49 340.17,117.39 340.17,133.39" fill="#0a321e"/>
<polygon points="210.49,134.07 221.77,138.18 210.49,142.28 199.21,138.18" fill="#161b22"/>
<polygon points="236.80,134.07 248.08,138.18 236.80,142.28 225.53,138.18" fill="#161b22"/>
<polygon points="263.11,134.07 274.39,138.18 263.11,142.28 251.84,138.18" fill="#161b22"/>
<polygon points="315.74,134.07 327.01,138.18 315.74,142.28 304.46,138.18" fill="#161b22"/>
<polygon points="342.05,134.07 353.32,138.18 342.05,142.28 330.77,138.18" fill="#161b22"/>
<polygon points="368.36,134.07 379.64,138.18 368.36,142.28 357.08,138.18" fill="#161b22"/>
<polygon points="289.43,119.07 300.70,123.18 289.43,127.28 278.15,123.18" fill="#0e4429"/>
<polygon points="278.15,138.18 278.15,123.18 289.43,127.28 289.43,142.28" fill="#0c3b24"/>
<polygon points="289.43,142.28 289.43,127.28 300.70,123.18 300.70,138.18" fill="#0a321e"/>
<polygon points="223.65,138.86 234.92,142.96 223.65,147.07 212.37,142.96" fill="#161b22"/>
<polygon points="249.96,138.86 261.23,142.96 249.96,147.07 238.68,142.96" fill="#161b22"/>
<polygon points="381.52,138.86 392.79,142.96 381.52,147.07 370.24,142.96" fill="#161b22"/>
<polygon points="302.58,125.86 313.86,129.96 302.58,134.07 291.30,129.96" fill="#0e4429"/>
<polygon points="291.30,142.96 291.30,129.96 302.58,134.07 302.58,147.07" fill="#0c3b24"/>
<polygon points="302.58,147.07 302.58,134.07 313.86,129.96 313.86,142.96" fill="#0a321e"/>
<polygon points="328.89,127.86 340.17,131.96 328.89,136.07 317.62,131.96" fill="#0e4429"/>
<polygon points="317.62,142.96 317.62,131.96 328.89,136.07 328.89,147.07" fill="#0c3b24"/>
<polygon points="328.89,147.07 328.89,136.07 340.17,131.96 340.17,142.96" fill="#0a321e"/>
<polygon points="276.27,120.86 287.55,124.96 276.27,129.07 264.99,124.96" fill="#006d32"/>
<polygon points="264.99,142.96 264.99,124.96 276.27,129.07 276.27,147.07" fill="#005f2c"/>
<polygon points="276.27,147.07 276.27,129.07 287.55,124.96 287.55,142.96" fill="#005025"/>
<polygon points="355.20,120.86 366.48,124.96 355.20,129.07 343.93,124.96" fill="#26a641"/>
<polygon points="343.93,142.96 343.93,124.96 355.20,129.07 355.20,147.07" fill="#219239"/>
<polygon points="355.20,147.07 355.20,129.07 366.48,124.96 366.48,142.96" fill="#1c7a30"/>
<polygon points="236.80,143.65 248.08,147.75 236.80,151.86 225.53,147.75" fill="#161b22"/>
<polygon points="263.11,143.65 274.39,147.75 263.11,151.86 251.84,147.75" fill="#161b22"/>
<polygon points="315.74,143.65 327.01,147.75 315.74,151.86 304.46,147.75" fill="#161b22"/>
<polygon points="394.67,143.65 405.95,147.75 394.67,151.86 383.39,147.75" fill="#161b22"/>
<polygon points="289.43,135.65 300.70,139.75 289.43,143.86 278.15,139.75" fill="#0e4429"/>
<polygon points="278.15,147.75 278.15,139.75 289.43,143.86 289.43,151.86" fill="#0c3b24"/>
<polygon points="289.43,151.86 289.43,143.86 300.70,139.75 300.70,147.75" fill="#0a321e"/>
<polygon points="368.36,135.65 379.64,139.75 368.36,143.86 357.08,139.75" fill="#0e4429"/>
<polygon points="357.08,147.75 357.08,139.75 368.36,143.86 368.36,151.86" fill="#0c3b24"/>
<polygon points="368.36,151.86 368.36,143.86 379.64,139.75 379.64,147.75" fill="#0a321e"/>
<polygon points="342.05,125.65 353.32,129.75 342.05,133.86 330.77,129.75" fill="#006d32"/>
<polygon points="330.77,147.75 330.77,129.75 342.05,133.86 342.05,151.86" fill="#005f2c"/>
<polygon points="342.05,151.86 342.05,133.86 353.32,129.75 353.32,147.75" fill="#005025"/>
<polygon points="249.96,148.44 261.23,152.54 249.96,156.65 238.68,152.54" fill="#161b22"/>
<polygon points="276.27,148.44 287.55,152.54 276.27,156.65 264.99,152.54" fill="#161b22"/>
<polygon points="302.58,148.44 313.86,152.54 302.58,156.65 291.30,152.54" fill="#161b22"/>
<polygon points="328.89,148.44 340.17,152.54 328.89,156.65 317.62,152.54" fill="#161b22"/>
<polygon points="355.20,148.44 366.48,152.54 355.20,156.65 343.93,152.54" fill="#161b22"/>
<polygon points="381.52,148.44 392.79,152.54 381.52,156.65 370.24,152.54" fill="#161b22"/>
<polygon points="407.83,140.44 419.10,144.54 407.83,148.65 396.55,144.54" fill="#0e4429"/>
<polygon points="396.55,152.54 396.55,144.54 407.83,148.65 407.83,156.65" fill="#0c3b24"/>
<polygon points="407.83,156.65 407.83,148.65 419.10,144.54 419.10,152.54" fill="#0a321e"/>
<polygon points="263.11,153.23 274.39,157.33 263.11,161.43 251.84,157.33" fill="#161b22"/>
<polygon points="289.43,153.23 300.70,157.33 289.43,161.43 278.15,157.33" fill="#161b22"/>
<polygon points="420.98,153.23 432.26,157.33 420.98,161.43 409.71,157.33" fill="#161b22"/>
<polygon points="342.05,137.23 353.32,141.33 342.05,145.43 330.77,141.33" fill="#0e4429"/>
<polygon points="330.77,157.33 330.77,141.33 342.05,145.43 342.05,161.43" fill="#0c3b24"/>
<polygon points="342.05,161.43 342.05,145.43 353.32,141.33 353.32,157.33" fill="#0a321e"/>
<polygon points="368.36,140.23 379.64,144.33 368.36,148.43 357.08,144.33" fill="#0e4429"/>
<polygon points="357.08,157.33 357.08,144.33 368.36,148.43 368.36,161.43" fill="#0c3b24"/>
<polygon points="368.36,161.43 368.36,148.43 379.64,144.33 379.64,157.33" fill="#0a321e"/>
<polygon points="394.67,135.23 405.95,139.33 394.67,143.43 383.39,139.33" fill="#0e4429"/>
<polygon points="383.39,157.33 383.39,139.33 394.67,143.43 394.67,161.43" fill="#0c3b24"/>
<polygon points="394.67,161.43 394.67,143.43 405.95,139.33 405.95,157.33" fill="#0a321e"/>
<polygon points="315.74,135.23 327.01,139.33 315.74,143.43 304.46,139.33" fill="#39d353"/>
<polygon points="304.46,157.33 304.46,139.33 315.74,143.43 315.74,161.43" fill="#32b949"/>
<polygon points="315.74,161.43 315.74,143.43 327.01,139.33 327.01,157.33" fill="#2a9c3d"/>
<polygon points="276.27,158.01 287.55,162.12 276.27,166.22 264.99,162.12" fill="#161b22"/>
<polygon points="434.14,158.01 445.41,162.12 434.14,166.22 422.86,162.12" fill="#161b22"/>
<polygon points="302.58,150.01 313.86,154.12 302.58,158.22 291.30,154.12" fill="#0e4429"/>
<polygon points="291.30,162.12 291.30,154.12 302.58,158.22 302.58,166.22" fill="#0c3b24"/>
<polygon points="302.58,166.22 302.58,158.22 313.86,154.12 313.86,162.12" fill="#0a321e"/>
<polygon points="328.89,142.01 340.17,146.12 328.89,150.22 317.62,146.12" fill="#0e4429"/>
<polygon points="317.62,162.12 317.62,146.12 328.89,150.22 328.89,166.22" fill="#0c3b24"/>
<polygon points="328.89,166.22 328.89,150.22 340.17,146.12 340.17,162.12" fill="#0a321e"/>
<polygon points="355.20,143.01 366.48,147.12 355.20,151.22 343.93,147.12" fill="#0e4429"/>
<polygon points="343.93,162.12 343.93,147.12 355.20,151.22 355.20,166.22" fill="#0c3b24"/>
<polygon points="355.20,166.22 355.20,151.22 366.48,147.12 366.48,162.12" fill="#0a321e"/>
<polygon points="381.52,142.01 392.79,146.12 381.52,150.22 370.24,146.12" fill="#0e4429"/>
<polygon points="370.24,162.12 370.24,146.12 381.52,150.22 381.52,166.22" fill="#0c3b24"/>
<polygon points="381.52,166.22 381.52,150.22 392.79,146.12 392.79,162.12" fill="#0a321e"/>
<polygon points="407.83,143.01 419.10,147.12 407.83,151.22 396.55,147.12" fill="#0e4429"/>
<polygon points="396.55,162.12 396.55,147.12 407.83,151.22 407.83,166.22" fill="#0c3b24"/>
<polygon points="407.83,166.22 407.83,151.22 419.10,147.12 419.10,162.12" fill="#0a321e"/>
<polygon points="289.43,162.80 300.70,166.91 289.43,171.01 278.15,166.91" fill="#161b22"/>
<polygon points="315.74,162.80 327.01,166.91 315.74,171.01 304.46,166.91" fill="#161b22"/>
<polygon points="420.98,162.80 432.26,166.91 420.98,171.01 409.71,166.91" fill="#161b22"/>
<polygon points="447.29,162.80 458.57,166.91 447.29,171.01 436.02,166.91" fill="#161b22"/>
<polygon points="368.36,148.80 379.64,152.91 368.36,157.01 357.08,152.91" fill="#0e4429"/>
<polygon points="357.08,166.91 357.08,152.91 368.36,157.01 368.36,171.01" fill="#0c3b24"/>
<polygon points="368.36,171.01 368.36,157.01 379.64,152.91 379.64,166.91" fill="#0a321e"/>
<polygon points="342.05,144.80 353.32,148.91 342.05,153.01 330.77,148.91" fill="#006d32"/>
<polygon points="330.77,166.91 330.77,148.91 342.05,153.01 342.05,171.01" fill="#005f2c"/>
<polygon points="342.05,171.01 342.05,153.01 353.32,148.91 353.32,166.91" fill="#005025"/>
<polygon points="394.67,144.80 405.95,148.91 394.67,153.01 383.39,148.91" fill="#006d32"/>
<polygon points="383.39,166.91 383.39,148.91 394.67,153.01 394.67,171.01" fill="#005f2c"/>
<polygon points="394.67,171.01 394.67,153.01 405.95,148.91 405.95,166.91" fill="#005025"/>
<polygon points="302.58,167.59 313.86,171.69 302.58,175.80 291.30,171.69" fill="#161b22"/>
<polygon points="355.20,167.59 366.48,171.69 355.20,175.80 343.93,171.69" fill="#161b22"/>
<polygon points="407.83,167.59 419.10,171.69 407.83,175.80 396.55,171.69" fill="#161b22"/>
<polygon points="434.14,167.59 445.41,171.69 434.14,175.80 422.86,171.69" fill="#161b22"/>
<polygon points="460.45,167.59 471.73,171.69 460.45,175.80 449.17,171.69" fill="#161b22"/>
<polygon points="328.89,154.59 340.17,158.69 328.89,162.80 317.62,158.69" fill="#0e4429"/>
<polygon points="317.62,171.69 317.62,158.69 328.89,162.80 328.89,175.80" fill="#0c3b24"/>
<polygon points="328.89,175.80 328.89,162.80 340.17,158.69 340.17,171.69" fill="#0a321e"/>
<polygon points="381.52,156.59 392.79,160.69 381.52,164.80 370.24,160.69" fill="#0e4429"/>
<polygon points="370.24,171.69 370.24,160.69 381.52,164.80 381.52,175.80" fill="#0c3b24"/>
<polygon points="381.52,175.80 381.52,164.80 392.79,160.69 392.79,171.69" fill="#0a321e"/>
<polygon points="315.74,172.38 327.01,176.48 315.74,180.59 304.46,176.48" fill="#161b22"/>
<polygon points="342.05,172.38 353.32,176.48 342.05,180.59 330.77,176.48" fill="#161b22"/>
<polygon points="394.67,172.38 405.95,176.48 394.67,180.59 383.39,176.48" fill="#161b22"/>
<polygon points="420.98,172.38 432.26,176.48 420.98,180.59 409.71,176.48" fill="#161b22"/>
<polygon points="447.29,172.38 458.57,176.48 447.29,180.59 436.02,176.48" fill="#161b22"/>
<polygon points="368.36,159.38 379.64,163.48 368.36,167.59 357.08,163.48" fill="#0e4429"/>
<polygon points="357.08,176.48 357.08,163.48 368.36,167.59 368.36,180.59" fill="#0c3b24"/>
<polygon points="368.36,180.59 368.36,167.59 379.64,163.48 379.64,176.48" fill="#0a321e"/>
<polygon points="473.61,161.38 484.88,165.48 473.61,169.59 462.33,165.48" fill="#0e4429"/>
<polygon points="462.33,176.48 462.33,165.48 473.61,169.59 473.61,180.59" fill="#0c3b24"/>
<polygon points="473.61,180.59 473.61,169.59 484.88,165.48 484.88,176.48" fill="#0a321e"/>
<polygon points="328.89,177.17 340.17,181.27 328.89,185.37 317.62,181.27" fill="#161b22"/>
<polygon points="355.20,177.17 366.48,181.27 355.20,185.37 343.93,181.27" fill="#161b22"/>
<polygon points="407.83,177.17 419.10,181.27 407.83,185.37 396.55,181.27" fill="#161b22"/>
<polygon points="434.14,177.17 445.41,181.27 434.14,185.37 422.86,181.27" fill="#161b22"/>
<polygon points="486.76,177.17 498.04,181.27 486.76,185.37 475.48,181.27" fill="#161b22"/>
<polygon points="460.45,164.17 471.73,168.27 460.45,172.37 449.17,168.27" fill="#0e4429"/>
<polygon points="449.17,181.27 449.17,168.27 460.45,172.37 460.45,185.37" fill="#0c3b24"/>
<polygon points="460.45,185.37 460.45,172.37 471.73,168.27 471.73,181.27" fill="#0a321e"/>
<polygon points="381.52,159.17 392.79,163.27 381.52,167.37 370.24,163.27" fill="#006d32"/>
<polygon points="370.24,181.27 370.24,163.27 381.52,167.37 381.52,185.37" fill="#005f2c"/>
<polygon points="381.52,185.37 381.52,167.37 392.79,163.27 392.79,181.27" fill="#005025"/>
<polygon points="342.05,181.95 353.32,186.06 342.05,190.16 330.77,186.06" fill="#161b22"/>
<polygon points="394.67,181.95 405.95,186.06 394.67,190.16 383.39,186.06" fill="#161b22"/>
<polygon points="499.92,181.95 511.19,186.06 499.92,190.16 488.64,186.06" fill="#161b22"/>
<polygon points="368.36,173.95 379.64,178.06 368.36,182.16 357.08,178.06" fill="#0e4429"/>
<polygon points="357.08,186.06 357.08,178.06 368.36,182.16 368.36,190.16" fill="#0c3b24"/>
<polygon points="368.36,190.16 368.36,182.16 379.64,178.06 379.64,186.06" fill="#0a321e"/>
<polygon points="420.98,170.95 432.26,175.06 420.98,179.16 409.71,175.06" fill="#0e4429"/>
<polygon points="409.71,186.06 409.71,175.06 420.98,179.16 420.98,190.16" fill="#0c3b24"/>
<polygon points="420.98,190.16 420.98,179.16 432.26,175.06 432.26,186.06" fill="#0a321e"/>
<polygon points="447.29,168.95 458.57,173.06 447.29,177.16 436.02,173.06" fill="#0e4429"/>
<polygon points="436.02,186.06 436.02,173.06 447.29,177.16 447.29,190.16" fill="#0c3b24"/>
<polygon points="447.29,190.16 447.29,177.16 458.57,173.06 458.57,186.06" fill="#0a321e"/>
<polygon points="473.61,167.95 484.88,172.06 473.61,176.16 462.33,172.06" fill="#0e4429"/>
<polygon points="462.33,186.06 462.33,172.06 473.61,176.16 473.61,190.16" fill="#0c3b24"/>
<polygon points="473.61,190.16 473.61,176.16 484.88,172.06 484.88,186.06" fill="#0a321e"/>
<polygon points="355.20,186.74 366.48,190.85 355.20,194.95 343.93,190.85" fill="#161b22"/>
<polygon points="381.52,186.74 392.79,190.85 381.52,194.95 370.24,190.85" fill="#161b22"/>
<polygon points="434.14,186.74 445.41,190.85 434.14,194.95 422.86,190.85" fill="#161b22"/>
<polygon points="460.45,186.74 471.73,190.85 460.45,194.95 449.17,190.85" fill="#161b22"/>
<polygon points="486.76,186.74 498.04,190.85 486.76,194.95 475.48,190.85" fill="#161b22"/>
<polygon points="513.07,186.74 524.35,190.85 513.07,194.95 501.80,190.85" fill="#161b22"/>
<polygon points="407.83,169.74 419.10,173.85 407.83,177.95 396.55,173.85" fill="#0e4429"/>
<polygon points="396.55,190.85 396.55,173.85 407.83,177.95 407.83,194.95" fill="#0c3b24"/>
<polygon points="407.83,194.95 407.83,177.95 419.10,173.85 419.10,190.85" fill="#0a321e"/>
<polygon points="368.36,191.53 379.64,195.64 368.36,199.74 357.08,195.64" fill="#161b22"/>
<polygon points="394.67,191.53 405.95,195.64 394.67,199.74 383.39,195.64" fill="#161b22"/>
<polygon points="420.98,191.53 432.26,195.64 420.98,199.74 409.71,195.64" fill="#161b22"/>
<polygon points="447.29,191.53 458.57,195.64 447.29,199.74 436.02,195.64" fill="#161b22"/>
<polygon points="473.61,191.53 484.88,195.64 473.61,199.74 462.33,195.64" fill="#161b22"/>
<polygon points="526.23,191.53 537.50,195.64 526.23,199.74 514.95,195.64" fill="#161b22"/>
<polygon points="499.92,178.53 511.19,182.64 499.92,186.74 488.64,182.64" fill="#0e4429"/>
<polygon points="488.64,195.64 488.64,182.64 499.92,186.74 499.92,199.74" fill="#0c3b24"/>
<polygon points="499.92,199.74 499.92,186.74 511.19,182.64 511.19,195.64" fill="#0a321e"/>
<polygon points="434.14,196.32 445.41,200.42 434.14,204.53 422.86,200.42" fill="#161b22"/>
<polygon points="486.76,196.32 498.04,200.42 486.76,204.53 475.48,200.42" fill="#161b22"/>
<polygon points="513.07,196.32 524.35,200.42 513.07,204.53 501.80,200.42" fill="#161b22"/>
<polygon points="539.38,196.32 550.66,200.42 539.38,204.53 528.11,200.42" fill="#161b22"/>
<polygon points="381.52,185.32 392.79,189.42 381.52,193.53 370.24,189.42" fill="#0e4429"/>
<polygon points="370.24,200.42 370.24,189.42 381.52,193.53 381.52,204.53" fill="#0c3b24"/>
<polygon points="381.52,204.53 381.52,193.53 392.79,189.42 392.79,200.42" fill="#0a321e"/>
<polygon points="407.83,188.32 419.10,192.42 407.83,196.53 396.55,192.42" fill="#0e4429"/>
<polygon points="396.55,200.42 396.55,192.42 407.83,196.53 407.83,204.53" fill="#0c3b24"/>
<polygon points="407.83,204.53 407.83,196.53 419.10,192.42 419.10,200.42" fill="#0a321e"/>
<polygon points="460.45,185.32 471.73,189.42 460.45,193.53 449.17,189.42" fill="#0e4429"/>
<polygon points="449.17,200.42 449.17,189.42 460.45,193.53 460.45,204.53" fill="#0c3b24"/>
<polygon points="460.45,204.53 460.45,193.53 471.73,189.42 471.73,200.42" fill="#0a321e"/>
<polygon points="394.67,201.11 405.95,205.21 394.67,209.32 383.39,205.21" fill="#161b22"/>
<polygon points="420.98,201.11 432.26,205.21 420.98,209.32 409.71,205.21" fill="#161b22"/>
<polygon points="447.29,201.11 458.57,205.21 447.29,209.32 436.02,205.21" fill="#161b22"/>
<polygon points="499.92,201.11 511.19,205.21 499.92,209.32 488.64,205.21" fill="#161b22"/>
<polygon points="526.23,201.11 537.50,205.21 526.23,209.32 514.95,205.21" fill="#161b22"/>
<polygon points="552.54,201.11 563.82,205.21 552.54,209.32 541.26,205.21" fill="#161b22"/>
<polygon points="473.61,185.11 484.88,189.21 473.61,193.32 462.33,189.21" fill="#0e4429"/>
<polygon points="462.33,205.21 462.33,189.21 473.61,193.32 473.61,209.32" fill="#0c3b24"/>
<polygon points="473.61,209.32 473.61,193.32 484.88,189.21 484.88,205.21" fill="#0a321e"/>
<polygon points="407.83,205.90 419.10,210.00 407.83,214.10 396.55,210.00" fill="#161b22"/>
<polygon points="486.76,205.90 498.04,210.00 486.76,214.10 475.48,210.00" fill="#161b22"/>
<polygon points="513.07,205.90 524.35,210.00 513.07,214.10 501.80,210.00" fill="#161b22"/>
<polygon points="565.69,205.90 576.97,210.00 565.69,214.10 554.42,210.00" fill="#161b22"/>
<polygon points="434.14,192.90 445.41,197.00 434.14,201.10 422.86,197.00" fill="#0e4429"/>
<polygon points="422.86,210.00 422.86,197.00 434.14,201.10 434.14,214.10" fill="#0c3b24"/>
<polygon points="434.14,214.10 434.14,201.10 445.41,197.00 445.41,210.00" fill="#0a321e"/>
<polygon points="460.45,194.90 471.73,199.00 460.45,203.10 449.17,199.00" fill="#0e4429"/>
<polygon points="449.17,210.00 449.17,199.00 460.45,203.10 460.45,214.10" fill="#0c3b24"/>
<polygon points="460.45,214.10 460.45,203.10 471.73,199.00 471.73,210.00" fill="#0a321e"/>
<polygon points="539.38,197.90 550.66,202.00 539.38,206.10 528.11,202.00" fill="#0e4429"/>
<polygon points="528.11,210.00 528.11,202.00 539.38,206.10 539.38,214.10" fill="#0c3b24"/>
<polygon points="539.38,214.10 539.38,206.10 550.66,202.00 550.66,210.00" fill="#0a321e"/>
<polygon points="420.98,210.68 432.26,214.79 420.98,218.89 409.71,214.79" fill="#161b22"/>
<polygon points="447.29,210.68 458.57,214.79 447.29,218.89 436.02,214.79" fill="#161b22"/>
<polygon points="499.92,210.68 511.19,214.79 499.92,218.89 488.64,214.79" fill="#161b22"/>
<polygon points="526.23,210.68 537.50,214.79 526.23,218.89 514.95,214.79" fill="#161b22"/>
<polygon points="552.54,210.68 563.82,214.79 552.54,218.89 541.26,214.79" fill="#161b22"/>
<polygon points="473.61,199.68 484.88,203.79 473.61,207.89 462.33,203.79" fill="#0e4429"/>
<polygon points="462.33,214.79 462.33,203.79 473.61,207.89 473.61,218.89" fill="#0c3b24"/>
<polygon points="473.61,218.89 473.61,207.89 484.88,203.79 484.88,214.79" fill="#0a321e"/>
<polygon points="578.85,202.68 590.13,206.79 578.85,210.89 567.57,206.79" fill="#0e4429"/>
<polygon points="567.57,214.79 567.57,206.79 578.85,210.89 578.85,218.89" fill="#0c3b24"/>
<polygon points="578.85,218.89 578.85,210.89 590.13,206.79 590.13,214.79" fill="#0a321e"/>
<polygon points="434.14,215.47 445.41,219.58 434.14,223.68 422.86,219.58" fill="#161b22"/>
<polygon points="460.45,215.47 471.73,219.58 460.45,223.68 449.17,219.58" fill="#161b22"/>
<polygon points="513.07,215.47 524.35,219.58 513.07,223.68 501.80,219.58" fill="#161b22"/>
<polygon points="539.38,215.47 550.66,219.58 539.38,223.68 528.11,219.58" fill="#161b22"/>
<polygon points="592.01,215.47 603.28,219.58 592.01,223.68 580.73,219.58" fill="#161b22"/>
<polygon points="486.76,207.47 498.04,211.58 486.76,215.68 475.48,211.58" fill="#0e4429"/>
<polygon points="475.48,219.58 475.48,211.58 486.76,215.68 486.76,223.68" fill="#0c3b24"/>
<polygon points="486.76,223.68 486.76,215.68 498.04,211.58 498.04,219.58" fill="#0a321e"/>
<polygon points="565.69,201.47 576.97,205.58 565.69,209.68 554.42,205.58" fill="#0e4429"/>
<polygon points="554.42,219.58 554.42,205.58 565.69,209.68 565.69,223.68" fill="#0c3b24"/>
<polygon points="565.69,223.68 565.69,209.68 576.97,205.58 576.97,219.58" fill="#0a321e"/>
<polygon points="447.29,220.26 458.57,224.37 447.29,228.47 436.02,224.37" fill="#161b22"/>
<polygon points="473.61,220.26 484.88,224.37 473.61,228.47 462.33,224.37" fill="#161b22"/>
<polygon points="526.23,220.26 537.50,224.37 526.23,228.47 514.95,224.37" fill="#161b22"/>
<polygon points="552.54,220.26 563.82,224.37 552.54,228.47 541.26,224.37" fill="#161b22"/>
<polygon points="605.16,220.26 616.44,224.37 605.16,228.47 593.89,224.37" fill="#161b22"/>
<polygon points="499.92,202.26 511.19,206.37 499.92,210.47 488.64,206.37" fill="#006d32"/>
<polygon points="488.64,224.37 488.64,206.37 499.92,210.47 499.92,228.47" fill="#005f2c"/>
<polygon points="499.92,228.47 499.92,210.47 511.19,206.37 511.19,224.37" fill="#005025"/>
<polygon points="578.85,202.26 590.13,206.37 578.85,210.47 567.57,206.37" fill="#26a641"/>
<polygon points="567.57,224.37 567.57,206.37 578.85,210.47 578.85,228.47" fill="#219239"/>
<polygon points="578.85,228.47 578.85,210.47 590.13,206.37 590.13,224.37" fill="#1c7a30"/>
<polygon points="460.45,225.05 471.73,229.15 460.45,233.26 449.17,229.15" fill="#161b22"/>
<polygon points="513.07,225.05 524.35,229.15 513.07,233.26 501.80,229.15" fill="#161b22"/>
<polygon points="592.01,225.05 603.28,229.15 592.01,233.26 580.73,229.15" fill="#161b22"/>
<polygon points="486.76,217.05 498.04,221.15 486.76,225.26 475.48,221.15" fill="#0e4429"/>
<polygon points="475.48,229.15 475.48,221.15 486.76,225.26 486.76,233.26" fill="#0c3b24"/>
<polygon points="486.76,233.26 486.76,225.26 498.04,221.15 498.04,229.15" fill="#0a321e"/>
<polygon points="539.38,214.05 550.66,218.15 539.38,222.26 528.11,218.15" fill="#0e4429"/>
<polygon points="528.11,229.15 528.11,218.15 539.38,222.26 539.38,233.26" fill="#0c3b24"/>
<polygon points="539.38,233.26 539.38,222.26 550.66,218.15 550.66,229.15" fill="#0a321e"/>
<polygon points="565.69,211.05 576.97,215.15 565.69,219.26 554.42,215.15" fill="#0e4429"/>
<polygon points="554.42,229.15 554.42,215.15 565.69,219.26 565.69,233.26" fill="#0c3b24"/>
<polygon points="565.69,233.26 565.69,219.26 576.97,215.15 576.97,229.15" fill="#0a321e"/>
<polygon points="618.32,210.05 629.59,214.15 618.32,218.26 607.04,214.15" fill="#0e4429"/>
<polygon points="607.04,229.15 607.04,214.15 618.32,218.26 618.32,233.26" fill="#0c3b24"/>
<polygon points="618.32,233.26 618.32,218.26 629.59,214.15 629.59,229.15" fill="#0a321e"/>
<polygon points="499.92,229.84 511.19,233.94 499.92,238.05 488.64,233.94" fill="#161b22"/>
<polygon points="473.61,218.84 484.88,222.94 473.61,227.05 462.33,222.94" fill="#0e4429"/>
<polygon points="462.33,233.94 462.33,222.94 473.61,227.05 473.61,238.05" fill="#0c3b24"/>
<polygon points="473.61,238.05 473.61,227.05 484.88,222.94 484.88,233.94" fill="#0a321e"/>
<polygon points="526.23,216.84 537.50,220.94 526.23,225.05 514.95,220.94" fill="#0e4429"/>
<polygon points="514.95,233.94 514.95,220.94 526.23,225.05 526.23,238.05" fill="#0c3b24"/>
<polygon points="526.23,238.05 526.23,225.05 537.50,220.94 537.50,233.94" fill="#0a321e"/>
<polygon points="552.54,218.84 563.82,222.94 552.54,227.05 541.26,222.94" fill="#0e4429"/>
<polygon points="541.26,233.94 541.26,222.94 552.54,227.05 552.54,238.05" fill="#0c3b24"/>
<polygon points="552.54,238.05 552.54,227.05 563.82,222.94 563.82,233.94" fill="#0a321e"/>
<polygon points="578.85,218.84 590.13,222.94 578.85,227.05 567.57,222.94" fill="#0e4429"/>
<polygon points="567.57,233.94 567.57,222.94 578.85,227.05 578.85,238.05" fill="#0c3b24"/>
<polygon points="578.85,238.05 578.85,227.05 590.13,222.94 590.13,233.94" fill="#0a321e"/>
<polygon points="605.16,212.84 616.44,216.94 605.16,221.05 593.89,216.94" fill="#0e4429"/>
<polygon points="593.89,233.94 593.89,216.94 605.16,221.05 605.16,238.05" fill="#0c3b24"/>
<polygon points="605.16,238.05 605.16,221.05 616.44,216.94 616.44,233.94" fill="#0a321e"/>
<polygon points="631.47,211.84 642.75,215.94 631.47,220.05 620.20,215.94" fill="#0e4429"/>
<polygon points="620.20,233.94 620.20,215.94 631.47,220.05 631.47,238.05" fill="#0c3b24"/>
<polygon points="631.47,238.05 631.47,220.05 642.75,215.94 642.75,233.94" fill="#0a321e"/>
<polygon points="486.76,234.63 498.04,238.73 486.76,242.83 475.48,238.73" fill="#161b22"/>
<polygon points="513.07,234.63 524.35,238.73 513.07,242.83 501.80,238.73" fill="#161b22"/>
<polygon points="592.01,234.63 603.28,238.73 592.01,242.83 580.73,238.73" fill="#161b22"/>
<polygon points="644.63,234.63 655.91,238.73 644.63,242.83 633.35,238.73" fill="#161b22"/>
<polygon points="539.38,221.63 550.66,225.73 539.38,229.83 528.11,225.73" fill="#0e4429"/>
<polygon points="528.11,238.73 528.11,225.73 539.38,229.83 539.38,242.83" fill="#0c3b24"/>
<polygon points="539.38,242.83 539.38,229.83 550.66,225.73 550.66,238.73" fill="#0a321e"/>
<polygon points="565.69,217.63 576.97,221.73 565.69,225.83 554.42,221.73" fill="#0e4429"/>
<polygon points="554.42,238.73 554.42,221.73 565.69,225.83 565.69,242.83" fill="#0c3b24"/>
<polygon points="565.69,242.83 565.69,225.83 576.97,221.73 576.97,238.73" fill="#0a321e"/>
<polygon points="618.32,218.63 629.59,222.73 618.32,226.83 607.04,222.73" fill="#0e4429"/>
<polygon points="607.04,238.73 607.04,222.73 618.32,226.83 618.32,242.83" fill="#0c3b24"/>
<polygon points="618.32,242.83 618.32,226.83 629.59,222.73 629.59,238.73" fill="#0a321e"/>
<polygon points="499.92,239.41 511.19,243.52 499.92,247.62 488.64,243.52" fill="#161b22"/>
<polygon points="526.23,239.41 537.50,243.52 526.23,247.62 514.95,243.52" fill="#161b22"/>
<polygon points="578.85,239.41 590.13,243.52 578.85,247.62 567.57,243.52" fill="#161b22"/>
<polygon points="657.78,239.41 669.06,243.52 657.78,247.62 646.51,243.52" fill="#161b22"/>
<polygon points="552.54,228.41 563.82,232.52 552.54,236.62 541.26,232.52" fill="#0e4429"/>
<polygon points="541.26,243.52 541.26,232.52 552.54,236.62 552.54,247.62" fill="#0c3b24"/>
<polygon points="552.54,247.62 552.54,236.62 563.82,232.52 563.82,243.52" fill="#0a321e"/>
<polygon points="605.16,223.41 616.44,227.52 605.16,231.62 593.89,227.52" fill="#0e4429"/>
<polygon points="593.89,243.52 593.89,227.52 605.16,231.62 605.16,247.62" fill="#0c3b24"/>
<polygon points="605.16,247.62 605.16,231.62 616.44,227.52 616.44,243.52" fill="#0a321e"/>
<polygon points="631.47,226.41 642.75,230.52 631.47,234.62 620.20,230.52" fill="#0e4429"/>
<polygon points="620.20,243.52 620.20,230.52 631.47,234.62 631.47,247.62" fill="#0c3b24"/>
<polygon points="631.47,247.62 631.47,234.62 642.75,230.52 642.75,243.52" fill="#0a321e"/>
<polygon points="513.07,244.20 524.35,248.31 513.07,252.41 501.80,248.31" fill="#161b22"/>
<polygon points="565.69,244.20 576.97,248.31 565.69,252.41 554.42,248.31" fill="#161b22"/>
<polygon points="644.63,244.20 655.91,248.31 644.63,252.41 633.35,248.31" fill="#161b22"/>
<polygon points="670.94,244.20 682.22,248.31 670.94,252.41 659.66,248.31" fill="#161b22"/>
<polygon points="539.38,233.20 550.66,237.31 539.38,241.41 528.11,237.31" fill="#0e4429"/>
<polygon points="528.11,248.31 528.11,237.31 539.38,241.41 539.38,252.41" fill="#0c3b24"/>
<polygon points="539.38,252.41 539.38,241.41 550.66,237.31 550.66,248.31" fill="#0a321e"/>
<polygon points="592.01,228.20 603.28,232.31 592.01,236.41 580.73,232.31" fill="#0e4429"/>
<polygon points="580.73,248.31 580.73,232.31 592.01,236.41 592.01,252.41" fill="#0c3b24"/>
<polygon points="592.01,252.41 592.01,236.41 603.28,232.31 603.28,248.31" fill="#0a321e"/>
<polygon points="618.32,226.20 629.59,230.31 618.32,234.41 607.04,230.31" fill="#006d32"/>
<polygon points="607.04,248.31 607.04,230.31 618.32,234.41 618.32,252.41" fill="#005f2c"/>
<polygon points="618.32,252.41 618.32,234.41 629.59,230.31 629.59,248.31" fill="#005025"/>
<polygon points="526.23,240.99 537.50,245.09 526.23,249.20 514.95,245.09" fill="#0e4429"/>
<polygon points="514.95,253.09 514.95,245.09 526.23,249.20 526.23,257.20" fill="#0c3b24"/>
<polygon points="526.23,257.20 526.23,249.20 537.50,245.09 537.50,253.09" fill="#0a321e"/>
<polygon points="552.54,237.99 563.82,242.09 552.54,246.20 541.26,242.09" fill="#0e4429"/>
<polygon points="541.26,253.09 541.26,242.09 552.54,246.20 552.54,257.20" fill="#0c3b24"/>
<polygon points="552.54,257.20 552.54,246.20 563.82,242.09 563.82,253.09" fill="#0a321e"/>
<polygon points="578.85,237.99 590.13,242.09 578.85,246.20 567.57,242.09" fill="#0e4429"/>
<polygon points="567.57,253.09 567.57,242.09 578.85,246.20 578.85,257.20" fill="#0c3b24"/>
<polygon points="578.85,257.20 578.85,246.20 590.13,242.09 590.13,253.09" fill="#0a321e"/>
<polygon points="605.16,232.99 616.44,237.09 605.16,241.20 593.89,237.09" fill="#0e4429"/>
<polygon points="593.89,253.09 593.89,237.09 605.16,241.20 605.16,257.20" fill="#0c3b24"/>
<polygon points="605.16,257.20 605.16,241.20 616.44,237.09 616.44,253.09" fill="#0a321e"/>
<polygon points="657.78,240.99 669.06,245.09 657.78,249.20 646.51,245.09" fill="#0e4429"/>
<polygon points="646.51,253.09 646.51,245.09 657.78,249.20 657.78,257.20" fill="#0c3b24"/>
<polygon points="657.78,257.20 657.78,249.20 669.06,245.09 669.06,253.09" fill="#0a321e"/>
<polygon points="684.10,237.99 695.37,242.09 684.10,246.20 672.82,242.09" fill="#0e4429"/>
<polygon points="672.82,253.09 672.82,242.09 684.10,246.20 684.10,257.20" fill="#0c3b24"/>
<polygon points="684.10,257.20 684.10,246.20 695.37,242.09 695.37,253.09" fill="#0a321e"/>
<polygon points="631.47,230.99 642.75,235.09 631.47,239.20 620.20,235.09" fill="#006d32"/>
<polygon points="620.20,253.09 620.20,235.09 631.47,239.20 631.47,257.20" fill="#005f2c"/>
<polygon points="631.47,257.20 631.47,239.20 642.75,235.09 642.75,253.09" fill="#005025"/>
<polygon points="644.63,253.78 655.91,257.88 644.63,261.99 633.35,257.88" fill="#161b22"/>
<polygon points="565.69,245.78 576.97,249.88 565.69,253.99 554.42,249.88" fill="#0e4429"/>
<polygon points="554.42,257.88 554.42,249.88 565.69,253.99 565.69,261.99" fill="#0c3b24"/>
<polygon points="565.69,261.99 565.69,253.99 576.97,249.88 576.97,257.88" fill="#0a321e"/>
<polygon points="592.01,239.78 603.28,243.88 592.01,247.99 580.73,243.88" fill="#0e4429"/>
<polygon points="580.73,257.88 580.73,243.88 592.01,247.99 592.01,261.99" fill="#0c3b24"/>
<polygon points="592.01,261.99 592.01,247.99 603.28,243.88 603.28,257.88" fill="#0a321e"/>
<polygon points="618.32,237.78 629.59,241.88 618.32,245.99 607.04,241.88" fill="#0e4429"/>
<polygon points="607.04,257.88 607.04,241.88 618.32,245.99 618.32,261.99" fill="#0c3b24"/>
<polygon points="618.32,261.99 618.32,245.99 629.59,241.88 629.59,257.88" fill="#0a321e"/>
<polygon points="670.94,245.78 682.22,249.88 670.94,253.99 659.66,249.88" fill="#0e4429"/>
<polygon points="659.66,257.88 659.66,249.88 670.94,253.99 670.94,261.99" fill="#0c3b24"/>
<polygon points="670.94,261.99 670.94,253.99 682.22,249.88 682.22,257.88" fill="#0a321e"/>
<polygon points="539.38,235.78 550.66,239.88 539.38,243.99 528.11,239.88" fill="#006d32"/>
<polygon points="528.11,257.88 528.11,239.88 539.38,243.99 539.38,261.99" fill="#005f2c"/>
<polygon points="539.38,261.99 539.38,243.99 550.66,239.88 550.66,257.88" fill="#005025"/>
<polygon points="552.54,258.57 563.82,262.67 552.54,266.78 541.26,262.67" fill="#161b22"/>
<polygon points="578.85,241.57 590.13,245.67 578.85,249.78 567.57,245.67" fill="#0e4429"/>
<polygon points="567.57,262.67 567.57,245.67 578.85,249.78 578.85,266.78" fill="#0c3b24"/>
<polygon points="578.85,266.78 578.85,249.78 590.13,245.67 590.13,262.67" fill="#0a321e"/>
<polygon points="631.47,245.57 642.75,249.67 631.47,253.78 620.20,249.67" fill="#0e4429"/>
<polygon points="620.20,262.67 620.20,249.67 631.47,253.78 631.47,266.78" fill="#0c3b24"/>
<polygon points="631.47,266.78 631.47,253.78 642.75,249.67 642.75,262.67" fill="#0a321e"/>
<polygon points="605.16,240.57 616.44,244.67 605.16,248.78 593.89,244.67" fill="#26a641"/>
<polygon points="593.89,262.67 593.89,244.67 605.16,248.78 605.16,266.78" fill="#219239"/>
<polygon points="605.16,266.78 605.16,248.78 616.44,244.67 616.44,262.67" fill="#1c7a30"/>
<polygon points="565.69,255.36 576.97,259.46 565.69,263.56 554.42,259.46" fill="#0e4429"/>
<polygon points="554.42,267.46 554.42,259.46 565.69,263.56 565.69,271.56" fill="#0c3b24"/>
<polygon points="565.69,271.56 565.69,263.56 576.97,259.46 576.97,267.46" fill="#0a321e"/>
<polygon points="592.01,250.36 603.28,254.46 592.01,258.56 580.73,254.46" fill="#0e4429"/>
<polygon points="580.73,267.46 580.73,254.46 592.01,258.56 592.01,271.56" fill="#0c3b24"/>
<polygon points="592.01,271.56 592.01,258.56 603.28,254.46 603.28,267.46" fill="#0a321e"/>
<polygon points="618.32,255.36 629.59,259.46 618.32,263.56 607.04,259.46" fill="#0e4429"/>
<polygon points="607.04,267.46 607.04,259.46 618.32,263.56 618.32,271.56" fill="#0c3b24"/>
<polygon points="618.32,271.56 618.32,263.56 629.59,259.46 629.59,267.46" fill="#0a321e"/>
<polygon points="578.85,268.14 590.13,272.25 578.85,276.35 567.57,272.25" fill="#161b22"/>
<polygon points="605.16,268.14 616.44,272.25 605.16,276.35 593.89,272.25" fill="#161b22"/>
<polygon points="592.01,272.93 603.28,277.04 592.01,281.14 580.73,277.04" fill="#161b22"/>
<text x="697.25" y="14.00" text-anchor="end" font-family='-apple-system, BlinkMacSystemFont, "Segoe UI", Helvetica, Arial, sans-serif' font-size="34" font-weight="700" fill="#39d353">630</text>
<text x="697.25" y="26.00" text-anchor="end" font-family='-apple-system, BlinkMacSystemFont, "Segoe UI", Helvetica, Arial, sans-serif' font-size="10" fill="#7d8590" letter-spacing="0.8">TOTAL CONTRIBUTIONS</text>
<rect x="-92.09" y="228.18" width="12" height="11.12" rx="1" fill="#006d32"/>
<text x="-86.09" y="257.30" text-anchor="middle" font-family='-apple-system, BlinkMacSystemFont, "Segoe UI", Helvetica, Arial, sans-serif' font-size="11" fill="#7d8590">S</text>
<rect x="-76.09" y="191.65" width="12" height="47.65" rx="1" fill="#006d32"/>
<text x="-70.09" y="257.30" text-anchor="middle" font-family='-apple-system, BlinkMacSystemFont, "Segoe UI", Helvetica, Arial, sans-serif' font-size="11" fill="#7d8590">M</text>
<rect x="-60.09" y="206.26" width="12" height="33.04" rx="1" fill="#006d32"/>
<text x="-54.09" y="257.30" text-anchor="middle" font-family='-apple-system, BlinkMacSystemFont, "Segoe UI", Helvetica, Arial, sans-serif' font-size="11" fill="#7d8590">T</text>
<rect x="-44.09" y="210.07" width="12" height="29.22" rx="1" fill="#006d32"/>
<text x="-38.09" y="257.30" text-anchor="middle" font-family='-apple-system, BlinkMacSystemFont, "Segoe UI", Helvetica, Arial, sans-serif' font-size="11" fill="#7d8590">W</text>
<rect x="-28.09" y="185.30" width="12" height="54.00" rx="1" fill="#39d353"/>
<text x="-22.09" y="257.30" text-anchor="middle" font-family='-apple-system, BlinkMacSystemFont, "Segoe UI", Helvetica, Arial, sans-serif' font-size="11" fill="#7d8590">T</text>
<rect x="-12.09" y="224.05" width="12" height="15.25" rx="1" fill="#006d32"/>
<text x="-6.09" y="257.30" text-anchor="middle" font-family='-apple-system, BlinkMacSystemFont, "Segoe UI", Helvetica, Arial, sans-serif' font-size="11" fill="#7d8590">F</text>
<rect x="3.91" y="229.45" width="12" height="9.85" rx="1" fill="#006d32"/>
<text x="9.91" y="257.30" text-anchor="middle" font-family='-apple-system, BlinkMacSystemFont, "Segoe UI", Helvetica, Arial, sans-serif' font-size="11" fill="#7d8590">S</text>
<text x="-92.09" y="277.30" font-family='-apple-system, BlinkMacSystemFont, "Segoe UI", Helvetica, Arial, sans-serif' font-size="12" fill="#7d8590" letter-spacing="0.3">Most active days</text>
<text x="-92.09" y="293.30" font-family='-apple-system, BlinkMacSystemFont, "Segoe UI", Helvetica, Arial, sans-serif' font-size="9" fill="#7d8590">Data pulled daily from GitHub.</text>
<text x="-92.09" y="303.30" font-family='-apple-system, BlinkMacSystemFont, "Segoe UI", Helvetica, Arial, sans-serif' font-size="9" fill="#7d8590">Rolling last-12-month activity.</text>
</svg>