<svg xmlns="http://www.w3.org/2000/svg" viewBox="-98.09 -24.00 801.34 354.30" width="801" height="354">
<polygon points="0.00,0.00 11.28,4.10 0.00,8.21 -11.28,4.10" fill="#161b22"/>
<polygon points="-13.16,4.79 -1.88,8.89 -13.16,13.00 -24.43,8.89" fill="#161b22"/>
<polygon points="13.16,-3.21 24.43,0.89 13.16,5.00 1.88,0.89" fill="#0e4429"/>
<polygon points="1.88,8.89 1.88,0.89 13.16,5.00 13.16,13.00" fill="#0c3b24"/>
<polygon points="13.16,13.00 13.16,5.00 24.43,0.89 24.43,8.89" fill="#0a321e"/>
<polygon points="0.00,9.58 11.28,13.68 0.00,17.79 -11.28,13.68" fill="#161b22"/>
<polygon points="-26.31,-4.42 -15.04,-0.32 -26.31,3.79 -37.59,-0.32" fill="#0e4429"/>
<polygon points="-37.59,13.68 -37.59,-0.32 -26.31,3.79 -26.31,17.79" fill="#0c3b24"/>
<polygon points="-26.31,17.79 -26.31,3.79 -15.04,-0.32 -15.04,13.68" fill="#0a321e"/>
<polygon points="26.31,-5.42 37.59,-1.32 26.31,2.79 15.04,-1.32" fill="#0e4429"/>
<polygon points="15.04,13.68 15.04,-1.32 26.31,2.79 26.31,17.79" fill="#0c3b24"/>
<polygon points="26.31,17.79 26.31,2.79 37.59,-1.32 37.59,13.68" fill="#0a321e"/>
<polygon points="-13.16,14.36 -1.88,18.47 -13.16,22.57 -24.43,18.47" fill="#161b22"/>
<polygon points="13.16,14.36 24.43,18.47 13.16,22.57 1.88,18.47" fill="#161b22"/>
<polygon points="-39.47,3.36 -28.19,7.47 -39.47,11.57 -50.74,7.47" fill="#0e4429"/>
<polygon points="-50.74,18.47 -50.74,7.47 -39.47,11.57 -39.47,22.57" fill="#0c3b24"/>
<polygon points="-39.47,22.57 -39.47,11.57 -28.19,7.47 -28.19,18.47" fill="#0a321e"/>
<polygon points="39.47,3.36 50.74,7.47 39.47,11.57 28.19,7.47" fill="#0e4429"/>
<polygon points="28.19,18.47 28.19,7.47 39.47,11.57 39.47,22.57" fill="#0c3b24"/>
<polygon points="39.47,22.57 39.47,11.57 50.74,7.47 50.74,18.47" fill="#0a321e"/>
<polygon points="-52.62,19.15 -41.35,23.26 -52.62,27.36 -63.90,23.26" fill="#161b22"/>
<polygon points="-26.31,19.15 -15.04,23.26 -26.31,27.36 -37.59,23.26" fill="#161b22"/>
<polygon points="0.00,19.15 11.28,23.26 0.00,27.36 -11.28,23.26" fill="#161b22"/>
<polygon points="52.62,19.15 63.90,23.26 52.62,27.36 41.35,23.26" fill="#161b22"/>
<polygon points="26.31,8.15 37.59,12.26 26.31,16.36 15.04,12.26" fill="#0e4429"/>
<polygon points="15.04,23.26 15.04,12.26 26.31,16.36 26.31,27.36" fill="#0c3b24"/>
<polygon points="26.31,27.36 26.31,16.36 37.59,12.26 37.59,23.26" fill="#0a321e"/>
<polygon points="-65.78,23.94 -54.50,28.05 -65.78,32.15 -77.05,28.05" fill="#161b22"/>
<polygon points="-39.47,23.94 -28.19,28.05 -39.47,32.15 -50.74,28.05" fill="#161b22"/>
<polygon points="-13.16,23.94 -1.88,28.05 -13.16,32.15 -24.43,28.05" fill="#161b22"/>
<polygon points="13.16,23.94 24.43,28.05 13.16,32.15 1.88,28.05" fill="#161b22"/>
<polygon points="39.47,23.94 50.74,28.05 39.47,32.15 28.19,28.05" fill="#161b22"/>
<polygon points="65.78,23.94 77.05,28.05 65.78,32.15 54.50,28.05" fill="#161b22"/>
<polygon points="-78.93,28.73 -67.66,32.83 -78.93,36.94 -90.21,32.83" fill="#161b22"/>
<polygon points="-26.31,28.73 -15.04,32.83 -26.31,36.94 -37.59,32.83" fill="#161b22"/>
<polygon points="0.00,28.73 11.28,32.83 0.00,36.94 -11.28,32.83" fill="#161b22"/>
<polygon points="26.31,28.73 37.59,32.83 26.31,36.94 15.04,32.83" fill="#161b22"/>
<polygon points="52.62,28.73 63.90,32.83 52.62,36.94 41.35,32.83" fill="#161b22"/>
<polygon points="78.93,28.73 90.21,32.83 78.93,36.94 67.66,32.83" fill="#161b22"/>
<polygon points="-52.62,15.73 -41.35,19.83 -52.62,23.94 -63.90,19.83" fill="#0e4429"/>
<polygon points="-63.90,32.83 -63.90,19.83 -52.62,23.94 -52.62,36.94" fill="#0c3b24"/>
<polygon points="-52.62,36.94 -52.62,23.94 -41.35,19.83 -41.35,32.83" fill="#0a321e"/>
<polygon points="-65.78,33.52 -54.50,37.62 -65.78,41.73 -77.05,37.62" fill="#161b22"/>
<polygon points="-39.47,33.52 -28.19,37.62 -39.47,41.73 -50.74,37.62" fill="#161b22"/>
<polygon points="13.16,33.52 24.43,37.62 13.16,41.73 1.88,37.62" fill="#161b22"/>
<polygon points="39.47,33.52 50.74,37.62 39.47,41.73 28.19,37.62" fill="#161b22"/>
<polygon points="65.78,33.52 77.05,37.62 65.78,41.73 54.50,37.62" fill="#161b22"/>
<polygon points="92.09,33.52 103.37,37.62 92.09,41.73 80.81,37.62" fill="#161b22"/>
<polygon points="-13.16,22.52 -1.88,26.62 -13.16,30.73 -24.43,26.62" fill="#0e4429"/>
<polygon points="-24.43,37.62 -24.43,26.62 -13.16,30.73 -13.16,41.73" fill="#0c3b24"/>
<polygon points="-13.16,41.73 -13.16,30.73 -1.88,26.62 -1.88,37.62" fill="#0a321e"/>
<polygon points="-52.62,38.31 -41.35,42.41 -52.62,46.51 -63.90,42.41" fill="#161b22"/>
<polygon points="-26.31,38.31 -15.04,42.41 -26.31,46.51 -37.59,42.41" fill="#161b22"/>
<polygon points="26.31,38.31 37.59,42.41 26.31,46.51 15.04,42.41" fill="#161b22"/>
<polygon points="52.62,38.31 63.90,42.41 52.62,46.51 41.35,42.41" fill="#161b22"/>
<polygon points="78.93,38.31 90.21,42.41 78.93,46.51 67.66,42.41" fill="#161b22"/>
<polygon points="105.25,38.31 116.52,42.41 105.25,46.51 93.97,42.41" fill="#161b22"/>
<polygon points="0.00,25.31 11.28,29.41 0.00,33.51 -11.28,29.41" fill="#0e4429"/>
<polygon points="-11.28,42.41 -11.28,29.41 0.00,33.51 0.00,46.51" fill="#0c3b24"/>
<polygon points="0.00,46.51 0.00,33.51 11.28,29.41 11.28,42.41" fill="#0a321e"/>
<polygon points="-39.47,43.09 -28.19,47.20 -39.47,51.30 -50.74,47.20" fill="#161b22"/>
<polygon points="-13.16,43.09 -1.88,47.20 -13.16,51.30 -24.43,47.20" fill="#161b22"/>
<polygon points="13.16,43.09 24.43,47.20 13.16,51.30 1.88,47.20" fill="#161b22"/>
<polygon points="39.47,43.09 50.74,47.20 39.47,51.30 28.19,47.20" fill="#161b22"/>
<polygon points="65.78,43.09 77.05,47.20 65.78,51.30 54.50,47.20" fill="#161b22"/>
<polygon points="92.09,43.09 103.37,47.20 92.09,51.30 80.81,47.20" fill="#161b22"/>
<polygon points="118.40,43.09 129.68,47.20 118.40,51.30 107.12,47.20" fill="#161b22"/>
<polygon points="-26.31,47.88 -15.04,51.99 -26.31,56.09 -37.59,51.99" fill="#161b22"/>
<polygon points="0.00,47.88 11.28,51.99 0.00,56.09 -11.28,51.99" fill="#161b22"/>
<polygon points="26.31,47.88 37.59,51.99 26.31,56.09 15.04,51.99" fill="#161b22"/>
<polygon points="52.62,47.88 63.90,51.99 52.62,56.09 41.35,51.99" fill="#161b22"/>
<polygon points="78.93,47.88 90.21,51.99 78.93,56.09 67.66,51.99" fill="#161b22"/>
<polygon points="105.25,47.88 116.52,51.99 105.25,56.09 93.97,51.99" fill="#161b22"/>
<polygon points="131.56,47.88 142.83,51.99 131.56,56.09 120.28,51.99" fill="#161b22"/>
<polygon points="-13.16,52.67 -1.88,56.78 -13.16,60.88 -24.43,56.78" fill="#161b22"/>
<polygon points="39.47,52.67 50.74,56.78 39.47,60.88 28.19,56.78" fill="#161b22"/>
<polygon points="65.78,52.67 77.05,56.78 65.78,60.88 54.50,56.78" fill="#161b22"/>
<polygon points="118.40,52.67 129.68,56.78 118.40,60.88 107.12,56.78" fill="#161b22"/>
<polygon points="144.71,52.67 155.99,56.78 144.71,60.88 133.44,56.78" fill="#161b22"/>
<polygon points="13.16,44.67 24.43,48.78 13.16,52.88 1.88,48.78" fill="#0e4429"/>
<polygon points="1.88,56.78 1.88,48.78 13.16,52.88 13.16,60.88" fill="#0c3b24"/>
<polygon points="13.16,60.88 13.16,52.88 24.43,48.78 24.43,56.78" fill="#0a321e"/>
<polygon points="92.09,44.67 103.37,48.78 92.09,52.88 80.81,48.78" fill="#0e4429"/>
<polygon points="80.81,56.78 80.81,48.78 92.09,52.88 92.09,60.88" fill="#0c3b24"/>
<polygon points="92.09,60.88 92.09,52.88 103.37,48.78 103.37,56.78" fill="#0a321e"/>
<polygon points="0.00,57.46 11.28,61.56 0.00,65.67 -11.28,61.56" fill="#161b22"/>
<polygon points="26.31,57.46 37.59,61.56 26.31,65.67 15.04,61.56" fill="#161b22"/>
<polygon points="52.62,57.46 63.90,61.56 52.62,65.67 41.35,61.56" fill="#161b22"/>
<polygon points="78.93,57.46 90.21,61.56 78.93,65.67 67.66,61.56" fill="#161b22"/>
<polygon points="105.25,57.46 116.52,61.56 105.25,65.67 93.97,61.56" fill="#161b22"/>
<polygon points="131.56,57.46 142.83,61.56 131.56,65.67 120.28,61.56" fill="#161b22"/>
<polygon points="157.87,57.46 169.14,61.56 157.87,65.67 146.59,61.56" fill="#161b22"/>
<polygon points="13.16,62.25 24.43,66.35 13.16,70.46 1.88,66.35" fill="#161b22"/>
<polygon points="39.47,62.25 50.74,66.35 39.47,70.46 28.19,66.35" fill="#161b22"/>
<polygon points="92.09,62.25 103.37,66.35 92.09,70.46 80.81,66.35" fill="#161b22"/>
<polygon points="118.40,62.25 129.68,66.35 118.40,70.46 107.12,66.35" fill="#161b22"/>
<polygon points="144.71,62.25 155.99,66.35 144.71,70.46 133.44,66.35" fill="#161b22"/>
<polygon points="171.02,62.25 182.30,66.35 171.02,70.46 159.75,66.35" fill="#161b22"/>
<polygon points="65.78,54.25 77.05,58.35 65.78,62.46 54.50,58.35" fill="#0e4429"/>
<polygon points="54.50,66.35 54.50,58.35 65.78,62.46 65.78,70.46" fill="#0c3b24"/>
<polygon points="65.78,70.46 65.78,62.46 77.05,58.35 77.05,66.35" fill="#0a321e"/>
<polygon points="26.31,67.04 37.59,71.14 26.31,75.24 15.04,71.14" fill="#161b22"/>
<polygon points="52.62,67.04 63.90,71.14 52.62,75.24 41.35,71.14" fill="#161b22"/>
<polygon points="78.93,67.04 90.21,71.14 78.93,75.24 67.66,71.14" fill="#161b22"/>
<polygon points="105.25,67.04 116.52,71.14 105.25,75.24 93.97,71.14" fill="#161b22"/>
<polygon points="131.56,67.04 142.83,71.14 131.56,75.24 120.28,71.14" fill="#161b22"/>
<polygon points="157.87,67.04 169.14,71.14 157.87,75.24 146.59,71.14" fill="#161b22"/>
<polygon points="184.18,67.04 195.46,71.14 184.18,75.24 172.90,71.14" fill="#161b22"/>
<polygon points="39.47,71.82 50.74,75.93 39.47,80.03 28.19,75.93" fill="#161b22"/>
<polygon points="65.78,71.82 77.05,75.93 65.78,80.03 54.50,75.93" fill="#161b22"/>
<polygon points="92.09,71.82 103.37,75.93 92.09,80.03 80.81,75.93" fill="#161b22"/>
<polygon points="118.40,71.82 129.68,75.93 118.40,80.03 107.12,75.93" fill="#161b22"/>
<polygon points="171.02,71.82 182.30,75.93 171.02,80.03 159.75,75.93" fill="#161b22"/>
<polygon points="197.34,71.82 208.61,75.93 197.34,80.03 186.06,75.93" fill="#161b22"/>
<polygon points="144.71,60.82 155.99,64.93 144.71,69.03 133.44,64.93" fill="#0e4429"/>
<polygon points="133.44,75.93 133.44,64.93 144.71,69.03 144.71,80.03" fill="#0c3b24"/>
<polygon points="144.71,80.03 144.71,69.03 155.99,64.93 155.99,75.93" fill="#0a321e"/>
<polygon points="52.62,76.61 63.90,80.72 52.62,84.82 41.35,80.72" fill="#161b22"/>
<polygon points="78.93,76.61 90.21,80.72 78.93,84.82 67.66,80.72" fill="#161b22"/>
<polygon points="105.25,76.61 116.52,80.72 105.25,84.82 93.97,80.72" fill="#161b22"/>
<polygon points="184.18,76.61 195.46,80.72 184.18,84.82 172.90,80.72" fill="#161b22"/>
<polygon points="210.49,76.61 221.77,80.72 210.49,84.82 199.21,80.72" fill="#161b22"/>
<polygon points="131.56,65.61 142.83,69.72 131.56,73.82 120.28,69.72" fill="#0e4429"/>
<polygon points="120.28,80.72 120.28,69.72 131.56,73.82 131.56,84.82" fill="#0c3b24"/>
<polygon points="131.56,84.82 131.56,73.82 142.83,69.72 142.83,80.72" fill="#0a321e"/>
<polygon points="157.87,68.61 169.14,72.72 157.87,76.82 146.59,72.72" fill="#0e4429"/>
<polygon points="146.59,80.72 146.59,72.72 157.87,76.82 157.87,84.82" fill="#0c3b24"/>
<polygon points="157.87,84.82 157.87,76.82 169.14,72.72 169.14,80.72" fill="#0a321e"/>
<polygon points="65.78,81.40 77.05,85.51 65.78,89.61 54.50,85.51" fill="#161b22"/>
<polygon points="92.09,81.40 103.37,85.51 92.09,89.61 80.81,85.51" fill="#161b22"/>
<polygon points="118.40,81.40 129.68,85.51 118.40,89.61 107.12,85.51" fill="#161b22"/>
<polygon points="171.02,81.40 182.30,85.51 171.02,89.61 159.75,85.51" fill="#161b22"/>
<polygon points="197.34,81.40 208.61,85.51 197.34,89.61 186.06,85.51" fill="#161b22"/>
<polygon points="144.71,70.40 155.99,74.51 144.71,78.61 133.44,74.51" fill="#0e4429"/>
<polygon points="133.44,85.51 133.44,74.51 144.71,78.61 144.71,89.61" fill="#0c3b24"/>
<polygon points="144.71,89.61 144.71,78.61 155.99,74.51 155.99,85.51" fill="#0a321e"/>
<polygon points="223.65,68.40 234.92,72.51 223.65,76.61 212.37,72.51" fill="#0e4429"/>
<polygon points="212.37,85.51 212.37,72.51 223.65,76.61 223.65,89.61" fill="#0c3b24"/>
<polygon points="223.65,89.61 223.65,76.61 234.92,72.51 234.92,85.51" fill="#0a321e"/>
<polygon points="78.93,86.19 90.21,90.29 78.93,94.40 67.66,90.29" fill="#161b22"/>
<polygon points="105.25,86.19 116.52,90.29 105.25,94.40 93.97,90.29" fill="#161b22"/>
<polygon points="131.56,86.19 142.83,90.29 131.56,94.40 120.28,90.29" fill="#161b22"/>
<polygon points="184.18,86.19 195.46,90.29 184.18,94.40 172.90,90.29" fill="#161b22"/>
<polygon points="236.80,86.19 248.08,90.29 236.80,94.40 225.53,90.29" fill="#161b22"/>
<polygon points="157.87,78.19 169.14,82.29 157.87,86.40 146.59,82.29" fill="#0e4429"/>
<polygon points="146.59,90.29 146.59,82.29 157.87,86.40 157.87,94.40" fill="#0c3b24"/>
<polygon points="157.87,94.40 157.87,86.40 169.14,82.29 169.14,90.29" fill="#0a321e"/>
<polygon points="210.49,68.19 221.77,72.29 210.49,76.40 199.21,72.29" fill="#006d32"/>
<polygon points="199.21,90.29 199.21,72.29 210.49,76.40 210.49,94.40" fill="#005f2c"/>
<polygon points="210.49,94.40 210.49,76.40 221.77,72.29 221.77,90.29" fill="#005025"/>
<polygon points="92.09,90.98 103.37,95.08 92.09,99.19 80.81,95.08" fill="#161b22"/>
<polygon points="118.40,90.98 129.68,95.08 118.40,99.19 107.12,95.08" fill="#161b22"/>
<polygon points="223.65,90.98 234.92,95.08 223.65,99.19 212.37,95.08" fill="#161b22"/>
<polygon points="249.96,90.98 261.23,95.08 249.96,99.19 238.68,95.08" fill="#161b22"/>
<polygon points="144.71,79.98 155.99,84.08 144.71,88.19 133.44,84.08" fill="#0e4429"/>
<polygon points="133.44,95.08 133.44,84.08 144.71,88.19 144.71,99.19" fill="#0c3b24"/>
<polygon points="144.71,99.19 144.71,88.19 155.99,84.08 155.99,95.08" fill="#0a321e"/>
<polygon points="171.02,77.98 182.30,82.08 171.02,86.19 159.75,82.08" fill="#0e4429"/>
<polygon points="159.75,95.08 159.75,82.08 171.02,86.19 171.02,99.19" fill="#0c3b24"/>
<polygon points="171.02,99.19 171.02,86.19 182.30,82.08 182.30,95.08" fill="#0a321e"/>
<polygon points="197.34,73.98 208.61,78.08 197.34,82.19 186.06,78.08" fill="#0e4429"/>
<polygon points="186.06,95.08 186.06,78.08 197.34,82.19 197.34,99.19" fill="#0c3b24"/>
<polygon points="197.34,99.19 197.34,82.19 208.61,78.08 208.61,95.08" fill="#0a321e"/>
<polygon points="105.25,95.77 116.52,99.87 105.25,103.97 93.97,99.87" fill="#161b22"/>
<polygon points="131.56,95.77 142.83,99.87 131.56,103.97 120.28,99.87" fill="#161b22"/>
<polygon points="157.87,95.77 169.14,99.87 157.87,103.97 146.59,99.87" fill="#161b22"/>
<polygon points="210.49,95.77 221.77,99.87 210.49,103.97 199.21,99.87" fill="#161b22"/>
<polygon points="236.80,95.77 248.08,99.87 236.80,103.97 225.53,99.87" fill="#161b22"/>
<polygon points="263.11,95.77 274.39,99.87 263.11,103.97 251.84,99.87" fill="#161b22"/>
<polygon points="184.18,82.77 195.46,86.87 184.18,90.97 172.90,86.87" fill="#0e4429"/>
<polygon points="172.90,99.87 172.90,86.87 184.18,90.97 184.18,103.97" fill="#0c3b24"/>
<polygon points="184.18,103.97 184.18,90.97 195.46,86.87 195.46,99.87" fill="#0a321e"/>
<polygon points="118.40,100.55 129.68,104.66 118.40,108.76 107.12,104.66" fill="#161b22"/>
<polygon points="144.71,100.55 155.99,104.66 144.71,108.76 133.44,104.66" fill="#161b22"/>
<polygon points="197.34,100.55 208.61,104.66 197.34,108.76 186.06,104.66" fill="#161b22"/>
<polygon points="223.65,100.55 234.92,104.66 223.65,108.76 212.37,104.66" fill="#161b22"/>
<polygon points="249.96,100.55 261.23,104.66 249.96,108.76 238.68,104.66" fill="#161b22"/>
<polygon points="276.27,100.55 287.55,104.66 276.27,108.76 264.99,104.66" fill="#161b22"/>
<polygon points="171.02,86.55 182.30,90.66 171.02,94.76 159.75,90.66" fill="#0e4429"/>
<polygon points="159.75,104.66 159.75,90.66 171.02,94.76 171.02,108.76" fill="#0c3b24"/>
<polygon points="171.02,108.76 171.02,94.76 182.30,90.66 182.30,104.66" fill="#0a321e"/>
<polygon points="157.87,105.34 169.14,109.45 157.87,113.55 146.59,109.45" fill="#161b22"/>
<polygon points="184.18,105.34 195.46,109.45 184.18,113.55 172.90,109.45" fill="#161b22"/>
<polygon points="236.80,105.34 248.08,109.45 236.80,113.55 225.53,109.45" fill="#161b22"/>
<polygon points="263.11,105.34 274.39,109.45 263.11,113.55 251.84,109.45" fill="#161b22"/>
<polygon points="289.43,105.34 300.70,109.45 289.43,113.55 278.15,109.45" fill="#161b22"/>
<polygon points="131.56,91.34 142.83,95.45 131.56,99.55 120.28,95.45" fill="#0e4429"/>
<polygon points="120.28,109.45 120.28,95.45 131.56,99.55 131.56,113.55" fill="#0c3b24"/>
<polygon points="131.56,113.55 131.56,99.55 142.83,95.45 142.83,109.45" fill="#0a321e"/>
<polygon points="210.49,97.34 221.77,101.45 210.49,105.55 199.21,101.45" fill="#0e4429"/>
<polygon points="199.21,109.45 199.21,101.45 210.49,105.55 210.49,113.55" fill="#0c3b24"/>
<polygon points="210.49,113.55 210.49,105.55 221.77,101.45 221.77,109.45" fill="#0a321e"/>
<polygon points="144.71,110.13 155.99,114.23 144.71,118.34 133.44,114.23" fill="#161b22"/>
<polygon points="171.02,110.13 182.30,114.23 171.02,118.34 159.75,114.23" fill="#161b22"/>
<polygon points="197.34,110.13 208.61,114.23 197.34,118.34 186.06,114.23" fill="#161b22"/>
<polygon points="223.65,110.13 234.92,114.23 223.65,118.34 212.37,114.23" fill="#161b22"/>
<polygon points="249.96,110.13 261.23,114.23 249.96,118.34 238.68,114.23" fill="#161b22"/>
<polygon points="276.27,110.13 287.55,114.23 276.27,118.34 264.99,114.23" fill="#161b22"/>
<polygon points="302.58,110.13 313.86,114.23 302.58,118.34 291.30,114.23" fill="#161b22"/>
<polygon points="157.87,114.92 169.14,119.02 157.87,123.13 146.59,119.02" fill="#161b22"/>
<polygon points="184.18,114.92 195.46,119.02 184.18,123.13 172.90,119.02" fill="#161b22"/>
<polygon points="210.49,114.92 221.77,119.02 210.49,123.13 199.21,119.02" fill="#161b22"/>
<polygon points="236.80,114.92 248.08,119.02 236.80,123.13 225.53,119.02" fill="#161b22"/>
<polygon points="263.11,114.92 274.39,119.02 263.11,123.13 251.84,119.02" fill="#161b22"/>
<polygon points="315.74,114.92 327.01,119.02 315.74,123.13 304.46,119.02" fill="#161b22"/>
<polygon points="289.43,106.92 300.70,111.02 289.43,115.13 278.15,111.02" fill="#0e4429"/>
<polygon points="278.15,119.02 278.15,111.02 289.43,115.13 289.43,123.13" fill="#0c3b24"/>
<polygon points="289.43,123.13 289.43,115.13 300.70,111.02 300.70,119.02" fill="#0a321e"/>
<polygon points="171.02,119.71 182.30,123.81 171.02,127.92 159.75,123.81" fill="#161b22"/>
<polygon points="197.34,119.71 208.61,123.81 197.34,127.92 186.06,123.81" fill="#161b22"/>
<polygon points="223.65,119.71 234.92,123.81 223.65,127.92 212.37,123.81" fill="#161b22"/>
<polygon points="328.89,119.71 340.17,123.81 328.89,127.92 317.62,123.81" fill="#161b22"/>
<polygon points="249.96,108.71 261.23,112.81 249.96,116.92 238.68,112.81" fill="#0e4429"/>
<polygon points="238.68,123.81 238.68,112.81 249.96,116.92 249.96,127.92" fill="#0c3b24"/>
<polygon points="249.96,127.92 249.96,116.92 261.23,112.81 261.23,123.81" fill="#0a321e"/>
<polygon points="276.27,111.71 287.55,115.81 276.27,119.92 264.99,115.81" fill="#0e4429"/>
<polygon points="264.99,123.81 264.99,115.81 276.27,119.92 276.27,127.92" fill="#0c3b24"/>
<polygon points="276.27,127.92 276.27,119.92 287.55,115.81 287.55,123.81" fill="#0a321e"/>
<polygon points="302.58,108.71 313.86,112.81 302.58,116.92 291.30,112.81" fill="#0e4429"/>
<polygon points="291.30,123.81 291.30,112.81 302.58,116.92 302.58,127.92" fill="#0c3b24"/>
<polygon points="302.58,127.92 302.58,116.92 313.86,112.81 313.86,123.81" fill="#0a321e"/>
<polygon points="289.43,124.50 300.70,128.60 289.43,132.70 278.15,128.60" fill="#161b22"/>
<polygon points="315.74,124.50 327.01,128.60 315.74,132.70 304.46,128.60" fill="#161b22"/>
<polygon points="342.05,124.50 353.32,128.60 342.05,132.70 330.77,128.60" fill="#161b22"/>
<polygon points="184.18,116.50 195.46,120.60 184.18,124.70 172.90,120.60" fill="#0e4429"/>
<polygon points="172.90,128.60 172.90,120.60 184.18,124.70 184.18,132.70" fill="#0c3b24"/>
<polygon points="184.18,132.70 184.18,124.70 195.46,120.60 195.46,128.60" fill="#0a321e"/>
<polygon points="210.49,116.50 221.77,120.60 210.49,124.70 199.21,120.60" fill="#0e4429"/>
<polygon points="199.21,128.60 199.21,120.60 210.49,124.70 210.49,132.70" fill="#0c3b24"/>
<polygon points="210.49,132.70 210.49,124.70 221.77,120.60 221.77,128.60" fill="#0a321e"/>
<polygon points="236.80,110.50 248.08,114.60 236.80,118.70 225.53,114.60" fill="#0e4429"/>
<polygon points="225.53,128.60 225.53,114.60 236.80,118.70 236.80,132.70" fill="#0c3b24"/>
<polygon points="236.80,132.70 236.80,118.70 248.08,114.60 248.08,128.60" fill="#0a321e"/>
<polygon points="263.11,116.50 274.39,120.60 263.11,124.70 251.84,120.60" fill="#0e4429"/>
<polygon points="251.84,128.60 251.84,120.60 263.11,124.70 263.11,132.70" fill="#0c3b24"/>
<polygon points="263.11,132.70 263.11,124.70 274.39,120.60 274.39,128.60" fill="#0a321e"/>
<polygon points="223.65,129.28 234.92,133.39 223.65,137.49 212.37,133.39" fill="#161b22"/>
<polygon points="249.96,129.28 261.23,133.39 249.96,137.49 238.68,133.39" fill="#161b22"/>
<polygon points="276.27,129.28 287.55,133.39 276.27,137.49 264.99,133.39" fill="#161b22"/>
<polygon points="302.58,129.28 313.86,133.39 302.58,137.49 291.30,133.39" fill="#161b22"/>
<polygon points="355.20,129.28 366.48,133.39 355.20,137.49 343.93,133.39" fill="#161b22"/>
<polygon points="197.34,121.28 208.61,125.39 197.34,129.49 186.06,125.39" fill="#0e4429"/>
<polygon points="186.06,133.39 186.06,125.39 197.34,129.49 197.34,137.49" fill="#0c3b24"/>
<polygon points="197.34,137.49 197.34,129.49 208.61,125.39 208.61,133.39" fill="#0a321e"/>
<polygon points="328.89,113.28 340.17,117.39 328.89,121.49 317.62,117.39" fill="#0e4429"/>
<polygon points="317.62,133.39 317.62,117.39 328.89,121.49 328.89,137.49" fill="#0c3b24"/>
<polygon points="328.89,137.49 328.89,121.49 340.17,117.39 340.17,133.39" fill="#0a321e"/>
<polygon points="210.49,134.07 221.77,138.18 210.49,142.28 199.21,138.18" fill="#161b22"/>
<polygon points="236.80,134.07 248.08,138.18 236.80,142.28 225.53,138.18" fill="#161b22"/>
<polygon points="289.43,134.07 300.70,138.18 289.43,142.28 278.15,138.18" fill="#161b22"/>
<polygon points="315.74,134.07 327.01,138.18 315.74,142.28 304.46,138.18" fill="#161b22"/>
<polygon points="342.05,134.07 353.32,138.18 342.05,142.28 330.77,138.18" fill="#161b22"/>
<polygon points="368.36,134.07 379.64,138.18 368.36,142.28 357.08,138.18" fill="#161b22"/>
<polygon points="263.11,126.07 274.39,130.18 263.11,134.28 251.84,130.18" fill="#0e4429"/>
<polygon points="251.84,138.18 251.84,130.18 263.11,134.28 263.11,142.28" fill="#0c3b24"/>
<polygon points="263.11,142.28 263.11,134.28 274.39,130.18 274.39,138.18" fill="#0a321e"/>
<polygon points="223.65,138.86 234.92,142.96 223.65,147.07 212.37,142.96" fill="#161b22"/>
<polygon points="276.27,138.86 287.55,142.96 276.27,147.07 264.99,142.96" fill="#161b22"/>
<polygon points="302.58,138.86 313.86,142.96 302.58,147.07 291.30,142.96" fill="#161b22"/>
<polygon points="328.89,138.86 340.17,142.96 328.89,147.07 317.62,142.96" fill="#161b22"/>
<polygon points="355.20,138.86 366.48,142.96 355.20,147.07 343.93,142.96" fill="#161b22"/>
<polygon points="381.52,138.86 392.79,142.96 381.52,147.07 370.24,142.96" fill="#161b22"/>
<polygon points="249.96,130.86 261.23,134.96 249.96,139.07 238.68,134.96" fill="#0e4429"/>
<polygon points="238.68,142.96 238.68,134.96 249.96,139.07 249.96,147.07" fill="#0c3b24"/>
<polygon points="249.96,147.07 249.96,139.07 261.23,134.96 261.23,142.96" fill="#0a321e"/>
<polygon points="236.80,143.65 248.08,147.75 236.80,151.86 225.53,147.75" fill="#161b22"/>
<polygon points="289.43,143.65 300.70,147.75 289.43,151.86 278.15,147.75" fill="#161b22"/>
<polygon points="342.05,143.65 353.32,147.75 342.05,151.86 330.77,147.75" fill="#161b22"/>
<polygon points="315.74,129.65 327.01,133.75 315.74,137.86 304.46,133.75" fill="#0e4429"/>
<polygon points="304.46,147.75 304.46,133.75 315.74,137.86 315.74,151.86" fill="#0c3b24"/>
<polygon points="315.74,151.86 315.74,137.86 327.01,133.75 327.01,147.75" fill="#0a321e"/>
<polygon points="263.11,125.65 274.39,129.75 263.11,133.86 251.84,129.75" fill="#006d32"/>
<polygon points="251.84,147.75 251.84,129.75 263.11,133.86 263.11,151.86" fill="#005f2c"/>
<polygon points="263.11,151.86 263.11,133.86 274.39,129.75 274.39,147.75" fill="#005025"/>
<polygon points="394.67,125.65 405.95,129.75 394.67,133.86 383.39,129.75" fill="#006d32"/>
<polygon points="383.39,147.75 383.39,129.75 394.67,133.86 394.67,151.86" fill="#005f2c"/>
<polygon points="394.67,151.86 394.67,133.86 405.95,129.75 405.95,147.75" fill="#005025"/>
<polygon points="368.36,125.65 379.64,129.75 368.36,133.86 357.08,129.75" fill="#26a641"/>
<polygon points="357.08,147.75 357.08,129.75 368.36,133.86 368.36,151.86" fill="#219239"/>
<polygon points="368.36,151.86 368.36,133.86 379.64,129.75 379.64,147.75" fill="#1c7a30"/>
<polygon points="249.96,148.44 261.23,152.54 249.96,156.65 238.68,152.54" fill="#161b22"/>
<polygon points="276.27,148.44 287.55,152.54 276.27,156.65 264.99,152.54" fill="#161b22"/>
<polygon points="302.58,148.44 313.86,152.54 302.58,156.65 291.30,152.54" fill="#161b22"/>
<polygon points="407.83,148.44 419.10,152.54 407.83,156.65 396.55,152.54" fill="#161b22"/>
<polygon points="328.89,135.44 340.17,139.54 328.89,143.65 317.62,139.54" fill="#0e4429"/>
<polygon points="317.62,152.54 317.62,139.54 328.89,143.65 328.89,156.65" fill="#0c3b24"/>
<polygon points="328.89,156.65 328.89,143.65 340.17,139.54 340.17,152.54" fill="#0a321e"/>
<polygon points="355.20,132.44 366.48,136.54 355.20,140.65 343.93,136.54" fill="#0e4429"/>
<polygon points="343.93,152.54 343.93,136.54 355.20,140.65 355.20,156.65" fill="#0c3b24"/>
<polygon points="355.20,156.65 355.20,140.65 366.48,136.54 366.48,152.54" fill="#0a321e"/>
<polygon points="381.52,132.44 392.79,136.54 381.52,140.65 370.24,136.54" fill="#0e4429"/>
<polygon points="370.24,152.54 370.24,136.54 381.52,140.65 381.52,156.65" fill="#0c3b24"/>
<polygon points="381.52,156.65 381.52,140.65 392.79,136.54 392.79,152.54" fill="#0a321e"/>
<polygon points="263.11,153.23 274.39,157.33 263.11,161.43 251.84,157.33" fill="#161b22"/>
<polygon points="289.43,153.23 300.70,157.33 289.43,161.43 278.15,157.33" fill="#161b22"/>
<polygon points="315.74,153.23 327.01,157.33 315.74,161.43 304.46,157.33" fill="#161b22"/>
<polygon points="368.36,153.23 379.64,157.33 368.36,161.43 357.08,157.33" fill="#161b22"/>
<polygon points="394.67,153.23 405.95,157.33 394.67,161.43 383.39,157.33" fill="#161b22"/>
<polygon points="420.98,153.23 432.26,157.33 420.98,161.43 409.71,157.33" fill="#161b22"/>
<polygon points="342.05,138.23 353.32,142.33 342.05,146.43 330.77,142.33" fill="#0e4429"/>
<polygon points="330.77,157.33 330.77,142.33 342.05,146.43 342.05,161.43" fill="#0c3b24"/>
<polygon points="342.05,161.43 342.05,146.43 353.32,142.33 353.32,157.33" fill="#0a321e"/>
<polygon points="276.27,158.01 287.55,162.12 276.27,166.22 264.99,162.12" fill="#161b22"/>
<polygon points="302.58,158.01 313.86,162.12 302.58,166.22 291.30,162.12" fill="#161b22"/>
<polygon points="434.14,158.01 445.41,162.12 434.14,166.22 422.86,162.12" fill="#161b22"/>
<polygon points="355.20,145.01 366.48,149.12 355.20,153.22 343.93,149.12" fill="#0e4429"/>
<polygon points="343.93,162.12 343.93,149.12 355.20,153.22 355.20,166.22" fill="#0c3b24"/>
<polygon points="355.20,166.22 355.20,153.22 366.48,149.12 366.48,162.12" fill="#0a321e"/>
<polygon points="381.52,147.01 392.79,151.12 381.52,155.22 370.24,151.12" fill="#0e4429"/>
<polygon points="370.24,162.12 370.24,151.12 381.52,155.22 381.52,166.22" fill="#0c3b24"/>
<polygon points="381.52,166.22 381.52,155.22 392.79,151.12 392.79,162.12" fill="#0a321e"/>
<polygon points="328.89,140.01 340.17,144.12 328.89,148.22 317.62,144.12" fill="#006d32"/>
<polygon points="317.62,162.12 317.62,144.12 328.89,148.22 328.89,166.22" fill="#005f2c"/>
<polygon points="328.89,166.22 328.89,148.22 340.17,144.12 340.17,162.12" fill="#005025"/>
<polygon points="407.83,140.01 419.10,144.12 407.83,148.22 396.55,144.12" fill="#26a641"/>
<polygon points="396.55,162.12 396.55,144.12 407.83,148.22 407.83,166.22" fill="#219239"/>
<polygon points="407.83,166.22 407.83,148.22 419.10,144.12 419.10,162.12" fill="#1c7a30"/>
<polygon points="289.43,162.80 300.70,166.91 289.43,171.01 278.15,166.91" fill="#161b22"/>
<polygon points="315.74,162.80 327.01,166.91 315.74,171.01 304.46,166.91" fill="#161b22"/>
<polygon points="368.36,162.80 379.64,166.91 368.36,171.01 357.08,166.91" fill="#161b22"/>
<polygon points="447.29,162.80 458.57,166.91 447.29,171.01 436.02,166.91" fill="#161b22"/>
<polygon points="342.05,154.80 353.32,158.91 342.05,163.01 330.77,158.91" fill="#0e4429"/>
<polygon points="330.77,166.91 330.77,158.91 342.05,163.01 342.05,171.01" fill="#0c3b24"/>
<polygon points="342.05,171.01 342.05,163.01 353.32,158.91 353.32,166.91" fill="#0a321e"/>
<polygon points="420.98,154.80 432.26,158.91 420.98,163.01 409.71,158.91" fill="#0e4429"/>
<polygon points="409.71,166.91 409.71,158.91 420.98,163.01 420.98,171.01" fill="#0c3b24"/>
<polygon points="420.98,171.01 420.98,163.01 432.26,158.91 432.26,166.91" fill="#0a321e"/>
<polygon points="394.67,144.80 405.95,148.91 394.67,153.01 383.39,148.91" fill="#006d32"/>
<polygon points="383.39,166.91 383.39,148.91 394.67,153.01 394.67,171.01" fill="#005f2c"/>
<polygon points="394.67,171.01 394.67,153.01 405.95,148.91 405.95,166.91" fill="#005025"/>
<polygon points="302.58,167.59 313.86,171.69 302.58,175.80 291.30,171.69" fill="#161b22"/>
<polygon points="328.89,167.59 340.17,171.69 328.89,175.80 317.62,171.69" fill="#161b22"/>
<polygon points="355.20,167.59 366.48,171.69 355.20,175.80 343.93,171.69" fill="#161b22"/>
<polygon points="381.52,167.59 392.79,171.69 381.52,175.80 370.24,171.69" fill="#161b22"/>
<polygon points="407.83,167.59 419.10,171.69 407.83,175.80 396.55,171.69" fill="#161b22"/>
<polygon points="434.14,167.59 445.41,171.69 434.14,175.80 422.86,171.69" fill="#161b22"/>
<polygon points="460.45,159.59 471.73,163.69 460.45,167.80 449.17,163.69" fill="#0e4429"/>
<polygon points="449.17,171.69 449.17,163.69 460.45,167.80 460.45,175.80" fill="#0c3b24"/>
<polygon points="460.45,175.80 460.45,167.80 471.73,163.69 471.73,171.69" fill="#0a321e"/>
<polygon points="315.74,172.38 327.01,176.48 315.74,180.59 304.46,176.48" fill="#161b22"/>
<polygon points="342.05,172.38 353.32,176.48 342.05,180.59 330.77,176.48" fill="#161b22"/>
<polygon points="473.61,172.38 484.88,176.48 473.61,180.59 462.33,176.48" fill="#161b22"/>
<polygon points="394.67,156.38 405.95,160.48 394.67,164.59 383.39,160.48" fill="#0e4429"/>
<polygon points="383.39,176.48 383.39,160.48 394.67,164.59 394.67,180.59" fill="#0c3b24"/>
<polygon points="394.67,180.59 394.67,164.59 405.95,160.48 405.95,176.48" fill="#0a321e"/>
<polygon points="420.98,159.38 432.26,163.48 420.98,167.59 409.71,163.48" fill="#0e4429"/>
<polygon points="409.71,176.48 409.71,163.48 420.98,167.59 420.98,180.59" fill="#0c3b24"/>
<polygon points="420.98,180.59 420.98,167.59 432.26,163.48 432.26,176.48" fill="#0a321e"/>
<polygon points="447.29,154.38 458.57,158.48 447.29,162.59 436.02,158.48" fill="#0e4429"/>
<polygon points="436.02,176.48 436.02,158.48 447.29,162.59 447.29,180.59" fill="#0c3b24"/>
<polygon points="447.29,180.59 447.29,162.59 458.57,158.48 458.57,176.48" fill="#0a321e"/>
<polygon points="368.36,154.38 379.64,158.48 368.36,162.59 357.08,158.48" fill="#39d353"/>
<polygon points="357.08,176.48 357.08,158.48 368.36,162.59 368.36,180.59" fill="#32b949"/>
<polygon points="368.36,180.59 368.36,162.59 379.64,158.48 379.64,176.48" fill="#2a9c3d"/>
<polygon points="328.89,177.17 340.17,181.27 328.89,185.37 317.62,181.27" fill="#161b22"/>
<polygon points="486.76,177.17 498.04,181.27 486.76,185.37 475.48,181.27" fill="#161b22"/>
<polygon points="355.20,169.17 366.48,173.27 355.20,177.37 343.93,173.27" fill="#0e4429"/>
<polygon points="343.93,181.27 343.93,173.27 355.20,177.37 355.20,185.37" fill="#0c3b24"/>
<polygon points="355.20,185.37 355.20,177.37 366.48,173.27 366.48,181.27" fill="#0a321e"/>
<polygon points="381.52,161.17 392.79,165.27 381.52,169.37 370.24,165.27" fill="#0e4429"/>
<polygon points="370.24,181.27 370.24,165.27 381.52,169.37 381.52,185.37" fill="#0c3b24"/>
<polygon points="381.52,185.37 381.52,169.37 392.79,165.27 392.79,181.27" fill="#0a321e"/>
<polygon points="407.83,162.17 419.10,166.27 407.83,170.37 396.55,166.27" fill="#0e4429"/>
<polygon points="396.55,181.27 396.55,166.27 407.83,170.37 407.83,185.37" fill="#0c3b24"/>
<polygon points="407.83,185.37 407.83,170.37 419.10,166.27 419.10,181.27" fill="#0a321e"/>
<polygon points="434.14,161.17 445.41,165.27 434.14,169.37 422.86,165.27" fill="#0e4429"/>
<polygon points="422.86,181.27 422.86,165.27 434.14,169.37 434.14,185.37" fill="#0c3b24"/>
<polygon points="434.14,185.37 434.14,169.37 445.41,165.27 445.41,181.27" fill="#0a321e"/>
<polygon points="460.45,162.17 471.73,166.27 460.45,170.37 449.17,166.27" fill="#0e4429"/>
<polygon points="449.17,181.27 449.17,166.27 460.45,170.37 460.45,185.37" fill="#0c3b24"/>
<polygon points="460.45,185.37 460.45,170.37 471.73,166.27 471.73,181.27" fill="#0a321e"/>
<polygon points="342.05,181.95 353.32,186.06 342.05,190.16 330.77,186.06" fill="#161b22"/>
<polygon points="368.36,181.95 379.64,186.06 368.36,190.16 357.08,186.06" fill="#161b22"/>
<polygon points="473.61,181.95 484.88,186.06 473.61,190.16 462.33,186.06" fill="#161b22"/>
<polygon points="499.92,181.95 511.19,186.06 499.92,190.16 488.64,186.06" fill="#161b22"/>
<polygon points="420.98,167.95 432.26,172.06 420.98,176.16 409.71,172.06" fill="#0e4429"/>
<polygon points="409.71,186.06 409.71,172.06 420.98,176.16 420.98,190.16" fill="#0c3b24"/>
<polygon points="420.98,190.16 420.98,176.16 432.26,172.06 432.26,186.06" fill="#0a321e"/>
<polygon points="394.67,163.95 405.95,168.06 394.67,172.16 383.39,168.06" fill="#006d32"/>
<polygon points="383.39,186.06 383.39,168.06 394.67,172.16 394.67,190.16" fill="#005f2c"/>
<polygon points="394.67,190.16 394.67,172.16 405.95,168.06 405.95,186.06" fill="#005025"/>
<polygon points="447.29,163.95 458.57,168.06 447.29,172.16 436.02,168.06" fill="#006d32"/>
<polygon points="436.02,186.06 436.02,168.06 447.29,172.16 447.29,190.16" fill="#005f2c"/>
<polygon points="447.29,190.16 447.29,172.16 458.57,168.06 458.57,186.06" fill="#005025"/>
<polygon points="355.20,186.74 366.48,190.85 355.20,194.95 343.93,190.85" fill="#161b22"/>
<polygon points="407.83,186.74 419.10,190.85 407.83,194.95 396.55,190.85" fill="#161b22"/>
<polygon points="460.45,186.74 471.73,190.85 460.45,194.95 449.17,190.85" fill="#161b22"/>
<polygon points="486.76,186.74 498.04,190.85 486.76,194.95 475.48,190.85" fill="#161b22"/>
<polygon points="513.07,186.74 524.35,190.85 513.07,194.95 501.80,190.85" fill="#161b22"/>
<polygon points="381.52,173.74 392.79,177.85 381.52,181.95 370.24,177.85" fill="#0e4429"/>
<polygon points="370.24,190.85 370.24,177.85 381.52,181.95 381.52,194.95" fill="#0c3b24"/>
<polygon points="381.52,194.95 381.52,181.95 392.79,177.85 392.79,190.85" fill="#0a321e"/>
<polygon points="434.14,175.74 445.41,179.85 434.14,183.95 422.86,179.85" fill="#0e4429"/>
<polygon points="422.86,190.85 422.86,179.85 434.14,183.95 434.14,194.95" fill="#0c3b24"/>
<polygon points="434.14,194.95 434.14,183.95 445.41,179.85 445.41,190.85" fill="#0a321e"/>
<polygon points="368.36,191.53 379.64,195.64 368.36,199.74 357.08,195.64" fill="#161b22"/>
<polygon points="394.67,191.53 405.95,195.64 394.67,199.74 383.39,195.64" fill="#161b22"/>
<polygon points="447.29,191.53 458.57,195.64 447.29,199.74 436.02,195.64" fill="#161b22"/>
<polygon points="473.61,191.53 484.88,195.64 473.61,199.74 462.33,195.64" fill="#161b22"/>
<polygon points="499.92,191.53 511.19,195.64 499.92,199.74 488.64,195.64" fill="#161b22"/>
<polygon points="420.98,178.53 432.26,182.64 420.98,186.74 409.71,182.64" fill="#0e4429"/>
<polygon points="409.71,195.64 409.71,182.64 420.98,186.74 420.98,199.74" fill="#0c3b24"/>
<polygon points="420.98,199.74 420.98,186.74 432.26,182.64 432.26,195.64" fill="#0a321e"/>
<polygon points="526.23,180.53 537.50,184.64 526.23,188.74 514.95,184.64" fill="#0e4429"/>
<polygon points="514.95,195.64 514.95,184.64 526.23,188.74 526.23,199.74" fill="#0c3b24"/>
<polygon points="526.23,199.74 526.23,188.74 537.50,184.64 537.50,195.64" fill="#0a321e"/>
<polygon points="381.52,196.32 392.79,200.42 381.52,204.53 370.24,200.42" fill="#161b22"/>
<polygon points="407.83,196.32 419.10,200.42 407.83,204.53 396.55,200.42" fill="#161b22"/>
<polygon points="460.45,196.32 471.73,200.42 460.45,204.53 449.17,200.42" fill="#161b22"/>
<polygon points="486.76,196.32 498.04,200.42 486.76,204.53 475.48,200.42" fill="#161b22"/>
<polygon points="539.38,196.32 550.66,200.42 539.38,204.53 528.11,200.42" fill="#161b22"/>
<polygon points="513.07,183.32 524.35,187.42 513.07,191.53 501.80,187.42" fill="#0e4429"/>
<polygon points="501.80,200.42 501.80,187.42 513.07,191.53 513.07,204.53" fill="#0c3b24"/>
<polygon points="513.07,204.53 513.07,191.53 524.35,187.42 524.35,200.42" fill="#0a321e"/>
<polygon points="434.14,178.32 445.41,182.42 434.14,186.53 422.86,182.42" fill="#006d32"/>
<polygon points="422.86,200.42 422.86,182.42 434.14,186.53 434.14,204.53" fill="#005f2c"/>
<polygon points="434.14,204.53 434.14,186.53 445.41,182.42 445.41,200.42" fill="#005025"/>
<polygon points="394.67,201.11 405.95,205.21 394.67,209.32 383.39,205.21" fill="#161b22"/>
<polygon points="447.29,201.11 458.57,205.21 447.29,209.32 436.02,205.21" fill="#161b22"/>
<polygon points="552.54,201.11 563.82,205.21 552.54,209.32 541.26,205.21" fill="#161b22"/>
<polygon points="420.98,193.11 432.26,197.21 420.98,201.32 409.71,197.21" fill="#0e4429"/>
<polygon points="409.71,205.21 409.71,197.21 420.98,201.32 420.98,209.32" fill="#0c3b24"/>
<polygon points="420.98,209.32 420.98,201.32 432.26,197.21 432.26,205.21" fill="#0a321e"/>
<polygon points="473.61,190.11 484.88,194.21 473.61,198.32 462.33,194.21" fill="#0e4429"/>
<polygon points="462.33,205.21 462.33,194.21 473.61,198.32 473.61,209.32" fill="#0c3b24"/>
<polygon points="473.61,209.32 473.61,198.32 484.88,194.21 484.88,205.21" fill="#0a321e"/>
<polygon points="499.92,188.11 511.19,192.21 499.92,196.32 488.64,192.21" fill="#0e4429"/>
<polygon points="488.64,205.21 488.64,192.21 499.92,196.32 499.92,209.32" fill="#0c3b24"/>
<polygon points="499.92,209.32 499.92,196.32 511.19,192.21 511.19,205.21" fill="#0a321e"/>
<polygon points="526.23,187.11 537.50,191.21 526.23,195.32 514.95,191.21" fill="#0e4429"/>
<polygon points="514.95,205.21 514.95,191.21 526.23,195.32 526.23,209.32" fill="#0c3b24"/>
<polygon points="526.23,209.32 526.23,195.32 537.50,191.21 537.50,205.21" fill="#0a321e"/>
<polygon points="407.83,205.90 419.10,210.00 407.83,214.10 396.55,210.00" fill="#161b22"/>
<polygon points="434.14,205.90 445.41,210.00 434.14,214.10 422.86,210.00" fill="#161b22"/>
<polygon points="486.76,205.90 498.04,210.00 486.76,214.10 475.48,210.00" fill="#161b22"/>
<polygon points="513.07,205.90 524.35,210.00 513.07,214.10 501.80,210.00" fill="#161b22"/>
<polygon points="539.38,205.90 550.66,210.00 539.38,214.10 528.11,210.00" fill="#161b22"/>
<polygon points="565.69,205.90 576.97,210.00 565.69,214.10 554.42,210.00" fill="#161b22"/>
<polygon points="460.45,188.90 471.73,193.00 460.45,197.10 449.17,193.00" fill="#0e4429"/>
<polygon points="449.17,210.00 449.17,193.00 460.45,197.10 460.45,214.10" fill="#0c3b24"/>
<polygon points="460.45,214.10 460.45,197.10 471.73,193.00 471.73,210.00" fill="#0a321e"/>
<polygon points="420.98,210.68 432.26,214.79 420.98,218.89 409.71,214.79" fill="#161b22"/>
<polygon points="447.29,210.68 458.57,214.79 447.29,218.89 436.02,214.79" fill="#161b22"/>
<polygon points="473.61,210.68 484.88,214.79 473.61,218.89 462.33,214.79" fill="#161b22"/>
<polygon points="499.92,210.68 511.19,214.79 499.92,218.89 488.64,214.79" fill="#161b22"/>
<polygon points="526.23,210.68 537.50,214.79 526.23,218.89 514.95,214.79" fill="#161b22"/>
<polygon points="578.85,210.68 590.13,214.79 578.85,218.89 567.57,214.79" fill="#161b22"/>
<polygon points="552.54,197.68 563.82,201.79 552.54,205.89 541.26,201.79" fill="#0e4429"/>
<polygon points="541.26,214.79 541.26,201.79 552.54,205.89 552.54,218.89" fill="#0c3b24"/>
<polygon points="552.54,218.89 552.54,205.89 563.82,201.79 563.82,214.79" fill="#0a321e"/>
<polygon points="486.76,215.47 498.04,219.58 486.76,223.68 475.48,219.58" fill="#161b22"/>
<polygon points="539.38,215.47 550.66,219.58 539.38,223.68 528.11,219.58" fill="#161b22"/>
<polygon points="565.69,215.47 576.97,219.58 565.69,223.68 554.42,219.58" fill="#161b22"/>
<polygon points="592.01,215.47 603.28,219.58 592.01,223.68 580.73,219.58" fill="#161b22"/>
<polygon points="434.14,204.47 445.41,208.58 434.14,212.68 422.86,208.58" fill="#0e4429"/>
<polygon points="422.86,219.58 422.86,208.58 434.14,212.68 434.14,223.68" fill="#0c3b24"/>
<polygon points="434.14,223.68 434.14,212.68 445.41,208.58 445.41,219.58" fill="#0a321e"/>
<polygon points="460.45,207.47 471.73,211.58 460.45,215.68 449.17,211.58" fill="#0e4429"/>
<polygon points="449.17,219.58 449.17,211.58 460.45,215.68 460.45,223.68" fill="#0c3b24"/>
<polygon points="460.45,223.68 460.45,215.68 471.73,211.58 471.73,219.58" fill="#0a321e"/>
<polygon points="513.07,204.47 524.35,208.58 513.07,212.68 501.80,208.58" fill="#0e4429"/>
<polygon points="501.80,219.58 501.80,208.58 513.07,212.68 513.07,223.68" fill="#0c3b24"/>
<polygon points="513.07,223.68 513.07,212.68 524.35,208.58 524.35,219.58" fill="#0a321e"/>
<polygon points="447.29,220.26 458.57,224.37 447.29,228.47 436.02,224.37" fill="#161b22"/>
<polygon points="473.61,220.26 484.88,224.37 473.61,228.47 462.33,224.37" fill="#161b22"/>
<polygon points="499.92,220.26 511.19,224.37 499.92,228.47 488.64,224.37" fill="#161b22"/>
<polygon points="552.54,220.26 563.82,224.37 552.54,228.47 541.26,224.37" fill="#161b22"/>
<polygon points="578.85,220.26 590.13,224.37 578.85,228.47 567.57,224.37" fill="#161b22"/>
<polygon points="605.16,220.26 616.44,224.37 605.16,228.47 593.89,224.37" fill="#161b22"/>
<polygon points="526.23,204.26 537.50,208.37 526.23,212.47 514.95,208.37" fill="#0e4429"/>
<polygon points="514.95,224.37 514.95,208.37 526.23,212.47 526.23,228.47" fill="#0c3b24"/>
<polygon points="526.23,228.47 526.23,212.47 537.50,208.37 537.50,224.37" fill="#0a321e"/>
<polygon points="460.45,225.05 471.73,229.15 460.45,233.26 449.17,229.15" fill="#161b22"/>
<polygon points="539.38,225.05 550.66,229.15 539.38,233.26 528.11,229.15" fill="#161b22"/>
<polygon points="565.69,225.05 576.97,229.15 565.69,233.26 554.42,229.15" fill="#161b22"/>
<polygon points="618.32,225.05 629.59,229.15 618.32,233.26 607.04,229.15" fill="#161b22"/>
<polygon points="486.76,212.05 498.04,216.15 486.76,220.26 475.48,216.15" fill="#0e4429"/>
<polygon points="475.48,229.15 475.48,216.15 486.76,220.26 486.76,233.26" fill="#0c3b24"/>
<polygon points="486.76,233.26 486.76,220.26 498.04,216.15 498.04,229.15" fill="#0a321e"/>
<polygon points="513.07,214.05 524.35,218.15 513.07,222.26 501.80,218.15" fill="#0e4429"/>
<polygon points="501.80,229.15 501.80,218.15 513.07,222.26 513.07,233.26" fill="#0c3b24"/>
<polygon points="513.07,233.26 513.07,222.26 524.35,218.15 524.35,229.15" fill="#0a321e"/>
<polygon points="592.01,217.05 603.28,221.15 592.01,225.26 580.73,221.15" fill="#0e4429"/>
<polygon points="580.73,229.15 580.73,221.15 592.01,225.26 592.01,233.26" fill="#0c3b24"/>
<polygon points="592.01,233.26 592.01,225.26 603.28,221.15 603.28,229.15" fill="#0a321e"/>
<polygon points="473.61,229.84 484.88,233.94 473.61,238.05 462.33,233.94" fill="#161b22"/>
<polygon points="499.92,229.84 511.19,233.94 499.92,238.05 488.64,233.94" fill="#161b22"/>
<polygon points="552.54,229.84 563.82,233.94 552.54,238.05 541.26,233.94" fill="#161b22"/>
<polygon points="578.85,229.84 590.13,233.94 578.85,238.05 567.57,233.94" fill="#161b22"/>
<polygon points="605.16,229.84 616.44,233.94 605.16,238.05 593.89,233.94" fill="#161b22"/>
<polygon points="526.23,218.84 537.50,222.94 526.23,227.05 514.95,222.94" fill="#0e4429"/>
<polygon points="514.95,233.94 514.95,222.94 526.23,227.05 526.23,238.05" fill="#0c3b24"/>
<polygon points="526.23,238.05 526.23,227.05 537.50,222.94 537.50,233.94" fill="#0a321e"/>
<polygon points="631.47,221.84 642.75,225.94 631.47,230.05 620.20,225.94" fill="#0e4429"/>
<polygon points="620.20,233.94 620.20,225.94 631.47,230.05 631.47,238.05" fill="#0c3b24"/>
<polygon points="631.47,238.05 631.47,230.05 642.75,225.94 642.75,233.94" fill="#0a321e"/>
<polygon points="486.76,234.63 498.04,238.73 486.76,242.83 475.48,238.73" fill="#161b22"/>
<polygon points="513.07,234.63 524.35,238.73 513.07,242.83 501.80,238.73" fill="#161b22"/>
<polygon points="565.69,234.63 576.97,238.73 565.69,242.83 554.42,238.73" fill="#161b22"/>
<polygon points="592.01,234.63 603.28,238.73 592.01,242.83 580.73,238.73" fill="#161b22"/>
<polygon points="644.63,234.63 655.91,238.73 644.63,242.83 633.35,238.73" fill="#161b22"/>
<polygon points="539.38,226.63 550.66,230.73 539.38,234.83 528.11,230.73" fill="#0e4429"/>
<polygon points="528.11,238.73 528.11,230.73 539.38,234.83 539.38,242.83" fill="#0c3b24"/>
<polygon points="539.38,242.83 539.38,234.83 550.66,230.73 550.66,238.73" fill="#0a321e"/>
<polygon points="618.32,220.63 629.59,224.73 618.32,228.83 607.04,224.73" fill="#0e4429"/>
<polygon points="607.04,238.73 607.04,224.73 618.32,228.83 618.32,242.83" fill="#0c3b24"/>
<polygon points="618.32,242.83 618.32,228.83 629.59,224.73 629.59,238.73" fill="#0a321e"/>
<polygon points="499.92,239.41 511.19,243.52 499.92,247.62 488.64,243.52" fill="#161b22"/>
<polygon points="526.23,239.41 537.50,243.52 526.23,247.62 514.95,243.52" fill="#161b22"/>
<polygon points="578.85,239.41 590.13,243.52 578.85,247.62 567.57,243.52" fill="#161b22"/>
<polygon points="605.16,239.41 616.44,243.52 605.16,247.62 593.89,243.52" fill="#161b22"/>
<polygon points="657.78,239.41 669.06,243.52 657.78,247.62 646.51,243.52" fill="#161b22"/>
<polygon points="552.54,221.41 563.82,225.52 552.54,229.62 541.26,225.52" fill="#006d32"/>
<polygon points="541.26,243.52 541.26,225.52 552.54,229.62 552.54,247.62" fill="#005f2c"/>
<polygon points="552.54,247.62 552.54,229.62 563.82,225.52 563.82,243.52" fill="#005025"/>
<polygon points="631.47,221.41 642.75,225.52 631.47,229.62 620.20,225.52" fill="#26a641"/>
<polygon points="620.20,243.52 620.20,225.52 631.47,229.62 631.47,247.62" fill="#219239"/>
<polygon points="631.47,247.62 631.47,229.62 642.75,225.52 642.75,243.52" fill="#1c7a30"/>
<polygon points="513.07,244.20 524.35,248.31 513.07,252.41 501.80,248.31" fill="#161b22"/>
<polygon points="565.69,244.20 576.97,248.31 565.69,252.41 554.42,248.31" fill="#161b22"/>
<polygon points="644.63,244.20 655.91,248.31 644.63,252.41 633.35,248.31" fill="#161b22"/>
<polygon points="539.38,236.20 550.66,240.31 539.38,244.41 528.11,240.31" fill="#0e4429"/>
<polygon points="528.11,248.31 528.11,240.31 539.38,244.41 539.38,252.41" fill="#0c3b24"/>
<polygon points="539.38,252.41 539.38,244.41 550.66,240.31 550.66,248.31" fill="#0a321e"/>
<polygon points="592.01,233.20 603.28,237.31 592.01,241.41 580.73,237.31" fill="#0e4429"/>
<polygon points="580.73,248.31 580.73,237.31 592.01,241.41 592.01,252.41" fill="#0c3b24"/>
<polygon points="592.01,252.41 592.01,241.41 603.28,237.31 603.28,248.31" fill="#0a321e"/>
<polygon points="618.32,230.20 629.59,234.31 618.32,238.41 607.04,234.31" fill="#0e4429"/>
<polygon points="607.04,248.31 607.04,234.31 618.32,238.41 618.32,252.41" fill="#0c3b24"/>
<polygon points="618.32,252.41 618.32,238.41 629.59,234.31 629.59,248.31" fill="#0a321e"/>
<polygon points="670.94,229.20 682.22,233.31 670.94,237.41 659.66,233.31" fill="#0e4429"/>
<polygon points="659.66,248.31 659.66,233.31 670.94,237.41 670.94,252.41" fill="#0c3b24"/>
<polygon points="670.94,252.41 670.94,237.41 682.22,233.31 682.22,248.31" fill="#0a321e"/>
<polygon points="552.54,248.99 563.82,253.09 552.54,257.20 541.26,253.09" fill="#161b22"/>
<polygon points="526.23,237.99 537.50,242.09 526.23,246.20 514.95,242.09" fill="#0e4429"/>
<polygon points="514.95,253.09 514.95,242.09 526.23,246.20 526.23,257.20" fill="#0c3b24"/>
<polygon points="526.23,257.20 526.23,246.20 537.50,242.09 537.50,253.09" fill="#0a321e"/>
<polygon points="578.85,235.99 590.13,240.09 578.85,244.20 567.57,240.09" fill="#0e4429"/>
<polygon points="567.57,253.09 567.57,240.09 578.85,244.20 578.85,257.20" fill="#0c3b24"/>
<polygon points="578.85,257.20 578.85,244.20 590.13,240.09 590.13,253.09" fill="#0a321e"/>
<polygon points="605.16,237.99 616.44,242.09 605.16,246.20 593.89,242.09" fill="#0e4429"/>
<polygon points="593.89,253.09 593.89,242.09 605.16,246.20 605.16,257.20" fill="#0c3b24"/>
<polygon points="605.16,257.20 605.16,246.20 616.44,242.09 616.44,253.09" fill="#0a321e"/>
<polygon points="631.47,237.99 642.75,242.09 631.47,246.20 620.20,242.09" fill="#0e4429"/>
<polygon points="620.20,253.09 620.20,242.09 631.47,246.20 631.47,257.20" fill="#0c3b24"/>
<polygon points="631.47,257.20 631.47,246.20 642.75,242.09 642.75,253.09" fill="#0a321e"/>
<polygon points="657.78,231.99 669.06,236.09 657.78,240.20 646.51,236.09" fill="#0e4429"/>
<polygon points="646.51,253.09 646.51,236.09 657.78,240.20 657.78,257.20" fill="#0c3b24"/>
<polygon points="657.78,257.20 657.78,240.20 669.06,236.09 669.06,253.09" fill="#0a321e"/>
<polygon points="684.10,230.99 695.37,235.09 684.10,239.20 672.82,235.09" fill="#0e4429"/>
<polygon points="672.82,253.09 672.82,235.09 684.10,239.20 684.10,257.20" fill="#0c3b24"/>
<polygon points="684.10,257.20 684.10,239.20 695.37,235.09 695.37,253.09" fill="#0a321e"/>
<polygon points="539.38,253.78 550.66,257.88 539.38,261.99 528.11,257.88" fill="#161b22"/>
<polygon points="565.69,253.78 576.97,257.88 565.69,261.99 554.42,257.88" fill="#161b22"/>
<polygon points="644.63,253.78 655.91,257.88 644.63,261.99 633.35,257.88" fill="#161b22"/>
<polygon points="592.01,240.78 603.28,244.88 592.01,248.99 580.73,244.88" fill="#0e4429"/>
<polygon points="580.73,257.88 580.73,244.88 592.01,248.99 592.01,261.99" fill="#0c3b24"/>
<polygon points="592.01,261.99 592.01,248.99 603.28,244.88 603.28,257.88" fill="#0a321e"/>
<polygon points="618.32,236.78 629.59,240.88 618.32,244.99 607.04,240.88" fill="#0e4429"/>
<polygon points="607.04,257.88 607.04,240.88 618.32,244.99 618.32,261.99" fill="#0c3b24"/>
<polygon points="618.32,261.99 618.32,244.99 629.59,240.88 629.59,257.88" fill="#0a321e"/>
<polygon points="670.94,237.78 682.22,241.88 670.94,245.99 659.66,241.88" fill="#0e4429"/>
<polygon points="659.66,257.88 659.66,241.88 670.94,245.99 670.94,261.99" fill="#0c3b24"/>
<polygon points="670.94,261.99 670.94,245.99 682.22,241.88 682.22,257.88" fill="#0a321e"/>
<polygon points="552.54,258.57 563.82,262.67 552.54,266.78 541.26,262.67" fill="#161b22"/>
<polygon points="578.85,258.57 590.13,262.67 578.85,266.78 567.57,262.67" fill="#161b22"/>
<polygon points="631.47,258.57 642.75,262.67 631.47,266.78 620.20,262.67" fill="#161b22"/>
<polygon points="605.16,247.57 616.44,251.67 605.16,255.78 593.89,251.67" fill="#0e4429"/>
<polygon points="593.89,262.67 593.89,251.67 605.16,255.78 605.16,266.78" fill="#0c3b24"/>
<polygon points="605.16,266.78 605.16,255.78 616.44,251.67 616.44,262.67" fill="#0a321e"/>
<polygon points="657.78,242.57 669.06,246.67 657.78,250.78 646.51,246.67" fill="#0e4429"/>
<polygon points="646.51,262.67 646.51,246.67 657.78,250.78 657.78,266.78" fill="#0c3b24"/>
<polygon points="657.78,266.78 657.78,250.78 669.06,246.67 669.06,262.67" fill="#0a321e"/>
<polygon points="565.69,263.36 576.97,267.46 565.69,271.56 554.42,267.46" fill="#161b22"/>
<polygon points="618.32,263.36 629.59,267.46 618.32,271.56 607.04,267.46" fill="#161b22"/>
<polygon points="592.01,252.36 603.28,256.46 592.01,260.56 580.73,256.46" fill="#0e4429"/>
<polygon points="580.73,267.46 580.73,256.46 592.01,260.56 592.01,271.56" fill="#0c3b24"/>
<polygon points="592.01,271.56 592.01,260.56 603.28,256.46 603.28,267.46" fill="#0a321e"/>
<polygon points="644.63,247.36 655.91,251.46 644.63,255.56 633.35,251.46" fill="#0e4429"/>
<polygon points="633.35,267.46 633.35,251.46 644.63,255.56 644.63,271.56" fill="#0c3b24"/>
<polygon points="644.63,271.56 644.63,255.56 655.91,251.46 655.91,267.46" fill="#0a321e"/>
<polygon points="578.85,260.14 590.13,264.25 578.85,268.35 567.57,264.25" fill="#0e4429"/>
<polygon points="567.57,272.25 567.57,264.25 578.85,268.35 578.85,276.35" fill="#0c3b24"/>
<polygon points="578.85,276.35 578.85,268.35 590.13,264.25 590.13,272.25" fill="#0a321e"/>
<polygon points="605.16,257.14 616.44,261.25 605.16,265.35 593.89,261.25" fill="#0e4429"/>
<polygon points="593.89,272.25 593.89,261.25 605.16,265.35 605.16,276.35" fill="#0c3b24"/>
<polygon points="605.16,276.35 605.16,265.35 616.44,261.25 616.44,272.25" fill="#0a321e"/>
<polygon points="631.47,257.14 642.75,261.25 631.47,265.35 620.20,261.25" fill="#0e4429"/>
<polygon points="620.20,272.25 620.20,261.25 631.47,265.35 631.47,276.35" fill="#0c3b24"/>
<polygon points="631.47,276.35 631.47,265.35 642.75,261.25 642.75,272.25" fill="#0a321e"/>
<polygon points="618.32,272.93 629.59,277.04 618.32,281.14 607.04,277.04" fill="#161b22"/>
<polygon points="592.01,254.93 603.28,259.04 592.01,263.14 580.73,259.04" fill="#006d32"/>
<polygon points="580.73,277.04 580.73,259.04 592.01,263.14 592.01,281.14" fill="#005f2c"/>
<polygon points="592.01,281.14 592.01,263.14 603.28,259.04 603.28,277.04" fill="#005025"/>
<text x="697.25" y="14.00" text-anchor="end" font-family='-apple-system, BlinkMacSystemFont, "Segoe UI", Helvetica, Arial, sans-serif' font-size="34" font-weight="700" fill="#39d353">550</text>
<text x="697.25" y="26.00" text-anchor="end" font-family='-apple-system, BlinkMacSystemFont, "Segoe UI", Helvetica, Arial, sans-serif' font-size="10" fill="#7d8590" letter-spacing="0.8">TOTAL CONTRIBUTIONS</text>
<rect x="-92.09" y="224.24" width="12" height="15.06" rx="1" fill="#006d32"/>
<text x="-86.09" y="257.30" text-anchor="middle" font-family='-apple-system, BlinkMacSystemFont, "Segoe UI", Helvetica, Arial, sans-serif' font-size="11" fill="#7d8590">S</text>
<rect x="-76.09" y="185.30" width="12" height="54.00" rx="1" fill="#39d353"/>
<text x="-70.09" y="257.30" text-anchor="middle" font-family='-apple-system, BlinkMacSystemFont, "Segoe UI", Helvetica, Arial, sans-serif' font-size="11" fill="#7d8590">M</text>
<rect x="-60.09" y="211.75" width="12" height="27.55" rx="1" fill="#006d32"/>
<text x="-54.09" y="257.30" text-anchor="middle" font-family='-apple-system, BlinkMacSystemFont, "Segoe UI", Helvetica, Arial, sans-serif' font-size="11" fill="#7d8590">T</text>
<rect x="-44.09" y="210.64" width="12" height="28.65" rx="1" fill="#006d32"/>
<text x="-38.09" y="257.30" text-anchor="middle" font-family='-apple-system, BlinkMacSystemFont, "Segoe UI", Helvetica, Arial, sans-serif' font-size="11" fill="#7d8590">W</text>
<rect x="-28.09" y="187.87" width="12" height="51.43" rx="1" fill="#006d32"/>
<text x="-22.09" y="257.30" text-anchor="middle" font-family='-apple-system, BlinkMacSystemFont, "Segoe UI", Helvetica, Arial, sans-serif' font-size="11" fill="#7d8590">T</text>
<rect x="-12.09" y="224.97" width="12" height="14.33" rx="1" fill="#006d32"/>
<text x="-6.09" y="257.30" text-anchor="middle" font-family='-apple-system, BlinkMacSystemFont, "Segoe UI", Helvetica, Arial, sans-serif' font-size="11" fill="#7d8590">F</text>
<rect x="3.91" y="228.28" width="12" height="11.02" rx="1" fill="#006d32"/>
<text x="9.91" y="257.30" text-anchor="middle" font-family='-apple-system, BlinkMacSystemFont, "Segoe UI", Helvetica, Arial, sans-serif' font-size="11" fill="#7d8590">S</text>
<text x="-92.09" y="277.30" font-family='-apple-system, BlinkMacSystemFont, "Segoe UI", Helvetica, Arial, sans-serif' font-size="12" fill="#7d8590" letter-spacing="0.3">Most active days</text>
<text x="-92.09" y="293.30" font-family='-apple-system, BlinkMacSystemFont, "Segoe UI", Helvetica, Arial, sans-serif' font-size="9" fill="#7d8590">Data pulled daily from GitHub.</text>
<text x="-92.09" y="303.30" font-family='-apple-system, BlinkMacSystemFont, "Segoe UI", Helvetica, Arial, sans-serif' font-size="9" fill="#7d8590">Rolling last-12-month activity.</text>
</svg>